<svg width="2834" height="958" viewBox="0 0 2834 958" fill="none" xmlns="http://www.w3.org/2000/svg">
<defs>
<style> 

.d, .upperA, .v, .i, .c, .h, .firstA, .g, .secondA, .s {
    animation: changeNameColor 4s infinite;
}
    .d {
        animation-delay: 0.8s;
    }

    .upperA {
        animation-delay: 1.2s;
    }

    .v {
        animation-delay: 1.6s;
    }

    .i {
        animation-delay: 2s;
    }

    .c {
        animation-delay: 2.4s;
    }
        .h {
        animation-delay: 2.8s;
    } 
       .firstA {
        animation-delay: 3.2s;
    }   
     .g {
        animation-delay: 3.6s;
    }  
      .secondA {
        animation-delay: 4s;
    }  
      .s {
        animation-delay: 4.4s;
    }

        @keyframes changeNameColor {
            20% {
                fill: #4badd0;
            }
            80% {
                fill: #4badd0;
            }
            100% {
                fill: #ffffff;
            }
    }


.hand, .forearm, .arm {
        transform-origin: center;
        transform-box: fill-box;
}

.hand {
    animation: shakeHand 250ms infinite;
}

 .forearm{
    animation: shakeForearm 250ms infinite;
}

 .arm{
    animation: shakeArm 250ms infinite;
}


@keyframes shakeForearm {
    0%{
    transform:rotateZ(-2deg);
}
    50%{
    transform:rotateZ(2deg);
    }
}

@keyframes shakeArm {
    0%{
    transform:rotateZ(1deg);
}
    50%{
    transform:rotateZ(-1deg);
    }
}

@keyframes shakeHand {
    0%{
    transform:rotateZ(4deg);
}
    50%{
    transform:rotateZ(-6deg);
    }
}
</style>
</defs>
<g clip-path="url(#clip0_553_26)">
<rect width="2834" height="958" fill="#22272E"/>
<path d="M-292.436 101.405V-88.2754H110.057V101.405H-292.436Z" stroke="#010101" stroke-width="4"/>
<path d="M110.059 101.405V-88.2754H512.552V101.405H110.059Z" stroke="#010101" stroke-width="4"/>
<path d="M512.551 101.405V-88.2754H915.045V101.405H512.551Z" stroke="#010101" stroke-width="4"/>
<path d="M915.047 101.405V-88.2754H1317.54V101.405H915.047Z" stroke="#010101" stroke-width="4"/>
<path d="M1317.54 101.405V-88.2754H1720.03V101.405H1317.54Z" stroke="#010101" stroke-width="4"/>
<path d="M1720.03 101.405V-88.2754H2122.53V101.405H1720.03Z" stroke="#010101" stroke-width="4"/>
<path d="M2122.52 101.405V-88.2754H2525.01V101.405H2122.52Z" stroke="#010101" stroke-width="4"/>
<path d="M2525.01 101.405V-88.2754H2927.51V101.405H2525.01Z" stroke="#010101" stroke-width="4"/>
<path d="M-93.5049 291.087V101.406H308.988V291.087H-93.5049Z" stroke="#010101" stroke-width="4"/>
<path d="M308.987 291.087V101.406H711.481V291.087H308.987Z" stroke="#010101" stroke-width="4"/>
<path d="M711.482 291.087V101.406H1113.98V291.087H711.482Z" stroke="#010101" stroke-width="4"/>
<path d="M1113.97 291.087V101.406H1516.47V291.087H1113.97Z" stroke="#010101" stroke-width="4"/>
<path d="M1516.47 291.087V101.406H1918.96V291.087H1516.47Z" stroke="#010101" stroke-width="4"/>
<path d="M1918.96 291.087V101.406H2321.45V291.087H1918.96Z" stroke="#010101" stroke-width="4"/>
<path d="M2321.45 291.087V101.406H2723.94V291.087H2321.45Z" stroke="#010101" stroke-width="4"/>
<path d="M2723.94 291.087V101.406H3126.44V291.087H2723.94Z" stroke="#010101" stroke-width="4"/>
<path d="M-292.436 480.767V291.086H110.057V480.767H-292.436Z" stroke="#010101" stroke-width="4"/>
<path d="M110.059 480.767V291.086H512.552V480.767H110.059Z" stroke="#010101" stroke-width="4"/>
<path d="M512.551 480.767V291.086H915.045V480.767H512.551Z" stroke="#010101" stroke-width="4"/>
<path d="M915.047 480.767V291.086H1317.54V480.767H915.047Z" stroke="#010101" stroke-width="4"/>
<path d="M1317.54 480.767V291.086H1720.03V480.767H1317.54Z" stroke="#010101" stroke-width="4"/>
<path d="M1720.03 480.767V291.086H2122.53V480.767H1720.03Z" stroke="#010101" stroke-width="4"/>
<path d="M2122.52 480.767V291.086H2525.01V480.767H2122.52Z" stroke="#010101" stroke-width="4"/>
<path d="M2525.01 480.767V291.086H2927.51V480.767H2525.01Z" stroke="#010101" stroke-width="4"/>
<path d="M-93.5049 670.444V480.764H308.988V670.444H-93.5049Z" stroke="#010101" stroke-width="4"/>
<path d="M308.987 670.444V480.764H711.481V670.444H308.987Z" stroke="#010101" stroke-width="4"/>
<path d="M711.482 670.444V480.764H1113.98V670.444H711.482Z" stroke="#010101" stroke-width="4"/>
<path d="M1113.97 670.444V480.764H1516.47V670.444H1113.97Z" stroke="#010101" stroke-width="4"/>
<path d="M1516.47 670.444V480.764H1918.96V670.444H1516.47Z" stroke="#010101" stroke-width="4"/>
<path d="M1918.96 670.444V480.764H2321.45V670.444H1918.96Z" stroke="#010101" stroke-width="4"/>
<path d="M2321.45 670.444V480.764H2723.94V670.444H2321.45Z" stroke="#010101" stroke-width="4"/>
<path d="M2723.94 670.444V480.764H3126.44V670.444H2723.94Z" stroke="#010101" stroke-width="4"/>
<path d="M-292.436 860.126V670.445H110.057V860.126H-292.436Z" stroke="#010101" stroke-width="4"/>
<path d="M110.059 860.126V670.445H512.552V860.126H110.059Z" stroke="#010101" stroke-width="4"/>
<path d="M512.551 860.126V670.445H915.045V860.126H512.551Z" stroke="#010101" stroke-width="4"/>
<path d="M915.047 860.126V670.445H1317.54V860.126H915.047Z" stroke="#010101" stroke-width="4"/>
<path d="M1317.54 860.126V670.445H1720.03V860.126H1317.54Z" stroke="#010101" stroke-width="4"/>
<path d="M1720.03 860.126V670.445H2122.53V860.126H1720.03Z" stroke="#010101" stroke-width="4"/>
<path d="M2122.52 860.126V670.445H2525.01V860.126H2122.52Z" stroke="#010101" stroke-width="4"/>
<path d="M2525.01 860.126V670.445H2927.51V860.126H2525.01Z" stroke="#010101" stroke-width="4"/>
<path d="M-93.5049 1049.81V860.125H308.988V1049.81H-93.5049Z" stroke="#010101" stroke-width="4"/>
<path d="M308.987 1049.81V860.125H711.481V1049.81H308.987Z" stroke="#010101" stroke-width="4"/>
<path d="M711.482 1049.81V860.125H1113.98V1049.81H711.482Z" stroke="#010101" stroke-width="4"/>
<path d="M1113.97 1049.81V860.125H1516.47V1049.81H1113.97Z" stroke="#010101" stroke-width="4"/>
<path d="M1516.47 1049.81V860.125H1918.96V1049.81H1516.47Z" stroke="#010101" stroke-width="4"/>
<path d="M1918.96 1049.81V860.125H2321.45V1049.81H1918.96Z" stroke="#010101" stroke-width="4"/>
<path d="M2321.45 1049.81V860.125H2723.94V1049.81H2321.45Z" stroke="#010101" stroke-width="4"/>
<path d="M2723.94 1049.81V860.125H3126.44V1049.81H2723.94Z" stroke="#010101" stroke-width="4"/>
<g filter="url(#filter0_d_553_26)">
<path class="d" d="M431.23 307.59V125.593V114H570.345C586.033 114 600.191 116.378 612.82 121.134C625.449 125.791 636.203 132.628 645.083 141.645C653.962 150.662 660.77 161.71 665.506 174.789C670.34 187.769 672.758 202.583 672.758 219.229C672.758 235.974 670.34 250.887 665.506 263.966C660.77 277.045 653.962 288.094 645.083 297.11C636.203 306.028 625.449 312.865 612.82 317.621C600.191 322.278 586.033 324.607 570.345 324.607H547.657C518.998 311.527 483.175 293.261 431.23 307.59ZM533.346 312.865C537.984 312.865 542.177 312.419 545.926 311.527C549.774 310.536 553.128 308.753 555.99 306.177C558.851 303.6 561.317 300.132 563.389 295.773C565.461 291.314 567.139 285.616 568.421 278.68C569.803 271.744 570.789 263.421 571.381 253.711C572.072 243.901 572.417 232.407 572.417 219.229C572.417 206.051 572.072 194.606 571.381 184.896C570.789 175.185 569.803 166.862 568.421 159.926C567.139 152.99 565.461 147.293 563.389 142.834C561.317 138.375 558.851 134.907 555.99 132.43C553.128 129.854 549.774 128.07 545.926 127.079C542.177 126.088 537.984 125.593 533.346 125.593V312.865Z" fill="white"/>
<path class="v" d="M883.122 194.282C883.122 194.282 880.108 187.923 879.028 183.581C870.401 148.881 952.245 152.888 970.587 183.581C972.944 187.524 975.471 194.282 975.471 194.282L1025.2 311.402C1027.28 305.952 1029.55 300.007 1032.01 293.566C1034.48 287.026 1036.95 280.437 1039.41 273.799C1041.98 267.16 1044.44 260.719 1046.81 254.477C1049.18 248.234 1051.3 242.636 1053.18 237.682C1055.05 232.728 1056.58 228.615 1057.76 225.346C1058.95 222.076 1059.64 220.144 1059.83 219.549C1060.13 218.856 1060.28 218.261 1060.28 217.766C1062.01 213.307 1066.74 200.624 1066.74 200.624C1074.93 189.372 1080.54 207.284 1080.54 207.284L1076.21 217.518C1076.21 217.518 1075.62 218.459 1074.93 220.144C1074.14 221.828 1072.91 224.9 1071.23 229.359C1069.55 233.718 1067.53 238.97 1065.16 245.113C1062.79 251.257 1060.18 258.093 1057.32 265.624C1054.56 273.055 1051.7 280.735 1048.74 288.661C1045.78 296.588 1042.82 304.466 1039.86 312.293C1036.99 320.121 1034.28 327.453 1031.72 334.29L1027.7 344.31C1001.72 330.876 969.483 350.579 955.154 360.431L883.122 194.282Z" fill="white"/>
<path class="i" d="M1093.97 360.674V349.972V213.553C1124.42 225.346 1144.12 220.144 1163.83 213.553L1164.72 349.972V360.674H1093.97Z" fill="white"/>
<path d="M431.23 307.59V125.593V114H570.345C586.033 114 600.191 116.378 612.82 121.134C625.449 125.791 636.203 132.628 645.083 141.645C653.962 150.662 660.77 161.71 665.506 174.789C670.34 187.769 672.758 202.583 672.758 219.229C672.758 235.974 670.34 250.887 665.506 263.966C660.77 277.045 653.962 288.094 645.083 297.11C636.203 306.028 625.449 312.865 612.82 317.621C600.191 322.278 586.033 324.607 570.345 324.607H547.657C518.998 311.527 483.175 293.261 431.23 307.59ZM533.346 312.865C537.984 312.865 542.177 312.419 545.926 311.527C549.774 310.536 553.128 308.753 555.99 306.177C558.851 303.6 561.317 300.132 563.389 295.773C565.461 291.314 567.139 285.616 568.421 278.68C569.803 271.744 570.789 263.421 571.381 253.711C572.072 243.901 572.417 232.407 572.417 219.229C572.417 206.051 572.072 194.606 571.381 184.896C570.789 175.185 569.803 166.862 568.421 159.926C567.139 152.99 565.461 147.293 563.389 142.834C561.317 138.375 558.851 134.907 555.99 132.43C553.128 129.854 549.774 128.07 545.926 127.079C542.177 126.088 537.984 125.593 533.346 125.593V312.865Z" stroke="#010101"/>
<path d="M883.122 194.282C883.122 194.282 880.108 187.923 879.028 183.581C870.401 148.881 952.245 152.888 970.587 183.581C972.944 187.524 975.471 194.282 975.471 194.282L1025.2 311.402C1027.28 305.952 1029.55 300.007 1032.01 293.566C1034.48 287.026 1036.95 280.437 1039.41 273.799C1041.98 267.16 1044.44 260.719 1046.81 254.477C1049.18 248.234 1051.3 242.636 1053.18 237.682C1055.05 232.728 1056.58 228.615 1057.76 225.346C1058.95 222.076 1059.64 220.144 1059.83 219.549C1060.13 218.856 1060.28 218.261 1060.28 217.766C1062.01 213.307 1066.74 200.624 1066.74 200.624C1074.93 189.372 1080.54 207.284 1080.54 207.284L1076.21 217.518C1076.21 217.518 1075.62 218.459 1074.93 220.144C1074.14 221.828 1072.91 224.9 1071.23 229.359C1069.55 233.718 1067.53 238.97 1065.16 245.113C1062.79 251.257 1060.18 258.093 1057.32 265.624C1054.56 273.055 1051.7 280.735 1048.74 288.661C1045.78 296.588 1042.82 304.466 1039.86 312.293C1036.99 320.121 1034.28 327.453 1031.72 334.29L1027.7 344.31C1001.72 330.876 969.483 350.579 955.154 360.431L883.122 194.282Z" stroke="#010101"/>
<path d="M1093.97 360.674V349.972V213.553C1124.42 225.346 1144.12 220.144 1163.83 213.553L1164.72 349.972V360.674H1093.97Z" stroke="#010101"/>
<path class="c" d="M451.349 361.859C492.136 327.276 526.835 407.849 488.353 425.92C487.716 426.219 487.512 427.055 488.018 427.544C494.735 434.034 532.874 468.073 558.963 431.435C608.796 361.453 512.332 313.056 459.123 319.872C331.15 336.263 342.515 475.865 385.56 515.966C428.604 556.068 486.989 570.548 541.028 536.999C595.066 503.45 595.124 458.945 595.124 458.945C466.816 556.827 401.127 404.444 451.349 361.859Z" fill="white" stroke="#010101"/>
<path class="h" d="M598.014 451.387V357.214V351.08C594.432 324.071 639.212 333.922 648.565 351.08V395.975C650.378 393.76 652.558 391.772 655.107 390.012C657.713 388.251 660.573 386.775 663.688 385.582C666.803 384.333 670.117 383.395 673.628 382.771C677.197 382.146 680.85 381.834 684.588 381.834C692.291 381.834 698.635 382.856 703.619 384.9C708.66 386.888 712.625 389.756 715.513 393.505C718.402 397.196 720.413 401.711 721.545 407.05C722.678 412.331 723.245 418.238 723.245 424.769C723.245 431.3 716.155 459.12 726.077 475.456C750.149 515.089 801.464 485.729 801.464 485.729C876.448 567.733 672.694 613.225 672.694 479.886C672.694 473.752 672.694 457.567 672.694 457.567V424.769C672.694 418.919 672.524 414.149 672.184 410.457C671.844 406.709 671.25 403.784 670.4 401.683C669.55 399.525 668.418 398.048 667.002 397.253C665.586 396.401 663.801 395.975 661.649 395.975C659.497 395.975 657.599 396.429 655.957 397.338C654.314 398.247 652.927 399.525 651.794 401.171C650.718 402.818 649.896 404.778 649.33 407.05C648.82 409.321 648.565 411.792 648.565 414.461V459.448C648.565 459.448 622.196 442.431 598.014 451.387Z" fill="white"/>
<path class="firstA" d="M729.928 459.591C729.928 455.218 730.749 451.47 732.392 448.346C734.035 445.166 736.357 442.497 739.359 440.339C742.361 438.124 745.957 436.363 750.149 435.057C754.34 433.694 758.984 432.643 764.082 431.905C769.236 431.167 774.758 430.684 780.649 430.457C786.54 430.173 792.657 430.031 799 430.031V425.26C799 417.991 798.49 412.17 797.471 407.796C796.508 403.423 795.007 400.073 792.968 397.744C790.986 395.416 788.522 393.911 785.577 393.229C782.631 392.491 779.205 392.122 775.297 392.122C773.201 392.122 770.964 392.292 768.585 392.633C766.263 392.974 764.195 393.371 762.383 393.826C764.988 394.109 767.395 394.763 769.604 395.785C771.813 396.807 773.711 398.085 775.297 399.618C776.882 401.152 778.1 402.856 778.95 404.73C779.856 406.604 780.309 408.506 780.309 410.437C780.309 412.823 779.714 415.066 778.525 417.167C777.336 419.269 775.693 421.114 773.597 422.705C771.502 424.238 769.066 425.459 766.291 426.368C763.515 427.276 760.542 427.731 757.37 427.731C754.198 427.731 751.225 427.276 748.449 426.368C745.731 425.459 743.323 424.238 741.228 422.705C739.189 421.114 737.575 419.269 736.385 417.167C735.196 415.066 734.601 412.823 734.601 410.437C734.601 407.257 735.451 404.389 737.15 401.833C738.906 399.278 741.256 397.034 744.201 395.103C747.203 393.116 750.715 391.412 754.736 389.992C758.814 388.572 763.176 387.408 767.82 386.499C772.465 385.591 777.279 384.937 782.263 384.54C787.304 384.086 792.317 383.858 797.301 383.858C806.137 383.858 813.811 384.483 820.325 385.733C826.895 386.925 832.333 389.083 836.637 392.207C840.999 395.274 844.255 399.505 846.408 404.9C848.56 410.239 849.636 417.025 849.636 425.26V460.954C849.636 465.214 849.976 470.543 849.976 472.568L849.753 474.562C849.675 475.256 849.54 475.943 849.348 476.614C848.597 479.244 847.064 481.68 844.584 482.834C841.229 484.395 837.199 485.148 831.965 485.148C828.283 485.148 824.828 484.949 821.599 484.552C818.428 484.154 815.511 483.473 812.849 482.507C810.243 481.542 807.978 480.264 806.052 478.674C804.126 477.083 802.597 475.096 801.464 472.71C799.765 475.323 797.499 477.453 794.667 479.1C791.835 480.69 788.777 481.939 785.492 482.848C782.207 483.757 778.893 484.353 775.551 484.637C772.21 484.978 769.151 485.148 766.376 485.148C759.749 485.148 754.113 484.438 749.469 483.018C744.824 481.655 741.058 479.809 738.169 477.481C735.281 475.152 733.185 472.455 731.882 469.388C730.58 466.264 729.928 462.999 729.928 459.591ZM778.95 458.654C778.95 462.857 779.714 466.264 781.244 468.877C782.773 471.433 785.293 472.71 788.805 472.71C791.75 472.71 794.186 471.66 796.112 469.558C798.037 467.4 799 464.532 799 460.954V437.868C794.922 437.868 791.58 438.237 788.975 438.976C786.37 439.714 784.302 440.907 782.773 442.554C781.3 444.144 780.281 446.273 779.714 448.943C779.205 451.612 778.95 454.849 778.95 458.654Z" fill="white"/>
<path class="secondA" d="M1149.47 448.738C1149.47 446.545 1151.25 444.768 1153.44 444.768C1154.87 444.768 1156.18 445.548 1156.95 446.754C1159.26 450.36 1162.23 453.844 1165.87 457.206C1170.17 461.125 1175.02 464.617 1180.4 467.684C1185.84 470.694 1191.58 473.108 1197.64 474.925C1203.71 476.743 1209.74 477.651 1215.74 477.651C1218.23 477.651 1220.64 477.538 1222.96 477.311C1225.28 477.027 1227.32 476.544 1229.08 475.862C1230.84 475.124 1232.22 474.159 1233.24 472.966C1234.32 471.773 1234.86 470.24 1234.86 468.366C1234.86 466.435 1233.98 464.845 1232.22 463.595C1230.52 462.289 1228.2 461.21 1225.26 460.358C1222.31 459.506 1218.91 458.796 1215.06 458.228C1211.27 457.66 1207.3 457.092 1203.17 456.524C1195.69 455.559 1188.7 454.281 1182.18 452.691C1175.67 451.101 1170 448.914 1165.19 446.131C1160.38 443.349 1156.58 439.827 1153.81 435.568C1151.09 431.309 1149.73 426.027 1149.73 419.723C1149.73 413.93 1151 408.819 1153.55 404.389C1156.16 399.902 1159.75 396.154 1164.34 393.144C1168.93 390.077 1174.37 387.777 1180.65 386.244C1186.94 384.654 1193.79 383.858 1201.21 383.858C1204.72 383.858 1208.26 384.199 1211.83 384.881C1215.46 385.562 1218.94 386.471 1222.28 387.607C1225.68 388.686 1228.88 389.964 1231.88 391.44C1236.87 393.755 1242.89 393.141 1246.86 389.338L1250.05 386.278C1250.99 385.381 1252.23 384.881 1253.53 384.881C1256.31 384.881 1258.56 387.133 1258.56 389.912V414.603C1258.56 416.725 1256.84 418.445 1254.72 418.445C1253.36 418.445 1252.11 417.722 1251.37 416.589C1249.25 413.372 1246.69 410.356 1243.69 407.541C1240.18 404.19 1236.19 401.294 1231.71 398.852C1227.24 396.41 1222.4 394.507 1217.19 393.144C1211.97 391.724 1206.54 391.014 1200.87 391.014C1198.1 391.014 1195.55 391.156 1193.23 391.44C1190.9 391.724 1188.89 392.179 1187.19 392.803C1185.5 393.428 1184.16 394.251 1183.2 395.274C1182.3 396.296 1181.84 397.517 1181.84 398.937C1181.84 400.868 1182.55 402.458 1183.97 403.707C1185.38 404.957 1187.48 406.064 1190.25 407.03C1193.09 407.938 1196.57 408.762 1200.7 409.5C1204.84 410.239 1209.65 411.034 1215.15 411.886C1222.11 413.021 1228.6 414.413 1234.6 416.06C1240.61 417.707 1245.79 419.95 1250.15 422.79C1254.57 425.629 1258.02 429.236 1260.51 433.609C1263.06 437.982 1264.34 443.491 1264.34 450.135C1264.34 455.531 1263.29 460.415 1261.19 464.788C1259.16 469.104 1256.1 472.767 1252.02 475.777C1248 478.787 1243.01 481.087 1237.07 482.677C1231.12 484.324 1224.29 485.148 1216.59 485.148C1212.97 485.148 1209.06 484.779 1204.87 484.04C1200.67 483.359 1196.51 482.365 1192.38 481.059C1188.3 479.696 1184.42 478.077 1180.74 476.203C1175.07 473.229 1167.77 473.175 1163.13 477.588L1157.98 482.483C1157.05 483.373 1155.8 483.87 1154.51 483.87C1151.73 483.87 1149.47 481.614 1149.47 478.832V448.738Z" fill="white"/>
<path d="M598.014 451.387V357.214V351.08C594.432 324.071 639.212 333.922 648.565 351.08V395.975C650.378 393.76 652.558 391.772 655.107 390.012C657.713 388.251 660.573 386.775 663.688 385.582C666.803 384.333 670.117 383.395 673.628 382.771C677.197 382.146 680.85 381.834 684.588 381.834C692.291 381.834 698.635 382.856 703.619 384.9C708.66 386.888 712.625 389.756 715.513 393.505C718.402 397.196 720.413 401.711 721.545 407.05C722.678 412.331 723.245 418.238 723.245 424.769C723.245 431.3 716.155 459.12 726.077 475.456C750.149 515.089 801.464 485.729 801.464 485.729C876.448 567.733 672.694 613.225 672.694 479.886C672.694 473.752 672.694 457.567 672.694 457.567V424.769C672.694 418.919 672.524 414.149 672.184 410.457C671.844 406.709 671.25 403.784 670.4 401.683C669.55 399.525 668.418 398.048 667.002 397.253C665.586 396.401 663.801 395.975 661.649 395.975C659.497 395.975 657.599 396.429 655.957 397.338C654.314 398.247 652.927 399.525 651.794 401.171C650.718 402.818 649.896 404.778 649.33 407.05C648.82 409.321 648.565 411.792 648.565 414.461V459.448C648.565 459.448 622.196 442.431 598.014 451.387Z" stroke="#010101"/>
<path d="M729.928 459.591C729.928 455.218 730.749 451.47 732.392 448.346C734.035 445.166 736.357 442.497 739.359 440.339C742.361 438.124 745.957 436.363 750.149 435.057C754.34 433.694 758.984 432.643 764.082 431.905C769.236 431.167 774.758 430.684 780.649 430.457C786.54 430.173 792.657 430.031 799 430.031V425.26C799 417.991 798.49 412.17 797.471 407.796C796.508 403.423 795.007 400.073 792.968 397.744C790.986 395.416 788.522 393.911 785.577 393.229C782.631 392.491 779.205 392.122 775.297 392.122C773.201 392.122 770.964 392.292 768.585 392.633C766.263 392.974 764.195 393.371 762.383 393.826C764.988 394.109 767.395 394.763 769.604 395.785C771.813 396.807 773.711 398.085 775.297 399.618C776.882 401.152 778.1 402.856 778.95 404.73C779.856 406.604 780.309 408.506 780.309 410.437C780.309 412.823 779.714 415.066 778.525 417.167C777.336 419.269 775.693 421.114 773.597 422.705C771.502 424.238 769.066 425.459 766.291 426.368C763.515 427.276 760.542 427.731 757.37 427.731C754.198 427.731 751.225 427.276 748.449 426.368C745.731 425.459 743.323 424.238 741.228 422.705C739.189 421.114 737.575 419.269 736.385 417.167C735.196 415.066 734.601 412.823 734.601 410.437C734.601 407.257 735.451 404.389 737.15 401.833C738.906 399.278 741.256 397.034 744.201 395.103C747.203 393.116 750.715 391.412 754.736 389.992C758.814 388.572 763.176 387.408 767.82 386.499C772.465 385.591 777.279 384.937 782.263 384.54C787.304 384.086 792.317 383.858 797.301 383.858C806.137 383.858 813.811 384.483 820.325 385.733C826.895 386.925 832.333 389.083 836.637 392.207C840.999 395.274 844.255 399.505 846.408 404.9C848.56 410.239 849.636 417.025 849.636 425.26V460.954C849.636 465.214 849.976 470.543 849.976 472.568L849.753 474.562C849.675 475.256 849.54 475.943 849.348 476.614C848.597 479.244 847.064 481.68 844.584 482.834C841.229 484.395 837.199 485.148 831.965 485.148C828.283 485.148 824.828 484.949 821.599 484.552C818.428 484.154 815.511 483.473 812.849 482.507C810.243 481.542 807.978 480.264 806.052 478.674C804.126 477.083 802.597 475.096 801.464 472.71C799.765 475.323 797.499 477.453 794.667 479.1C791.835 480.69 788.777 481.939 785.492 482.848C782.207 483.757 778.893 484.353 775.551 484.637C772.21 484.978 769.151 485.148 766.376 485.148C759.749 485.148 754.113 484.438 749.469 483.018C744.824 481.655 741.058 479.809 738.169 477.481C735.281 475.152 733.185 472.455 731.882 469.388C730.58 466.264 729.928 462.999 729.928 459.591ZM778.95 458.654C778.95 462.857 779.714 466.264 781.244 468.877C782.773 471.433 785.293 472.71 788.805 472.71C791.75 472.71 794.186 471.66 796.112 469.558C798.037 467.4 799 464.532 799 460.954V437.868C794.922 437.868 791.58 438.237 788.975 438.976C786.37 439.714 784.302 440.907 782.773 442.554C781.3 444.144 780.281 446.273 779.714 448.943C779.205 451.612 778.95 454.849 778.95 458.654Z" stroke="#010101"/>
<path d="M1149.47 448.738C1149.47 446.545 1151.25 444.768 1153.44 444.768C1154.87 444.768 1156.18 445.548 1156.95 446.754C1159.26 450.36 1162.23 453.844 1165.87 457.206C1170.17 461.125 1175.02 464.617 1180.4 467.684C1185.84 470.694 1191.58 473.108 1197.64 474.925C1203.71 476.743 1209.74 477.651 1215.74 477.651C1218.23 477.651 1220.64 477.538 1222.96 477.311C1225.28 477.027 1227.32 476.544 1229.08 475.862C1230.84 475.124 1232.22 474.159 1233.24 472.966C1234.32 471.773 1234.86 470.24 1234.86 468.366C1234.86 466.435 1233.98 464.845 1232.22 463.595C1230.52 462.289 1228.2 461.21 1225.26 460.358C1222.31 459.506 1218.91 458.796 1215.06 458.228C1211.27 457.66 1207.3 457.092 1203.17 456.524C1195.69 455.559 1188.7 454.281 1182.18 452.691C1175.67 451.101 1170 448.914 1165.19 446.131C1160.38 443.349 1156.58 439.827 1153.81 435.568C1151.09 431.309 1149.73 426.027 1149.73 419.723C1149.73 413.93 1151 408.819 1153.55 404.389C1156.16 399.902 1159.75 396.154 1164.34 393.144C1168.93 390.077 1174.37 387.777 1180.65 386.244C1186.94 384.654 1193.79 383.858 1201.21 383.858C1204.72 383.858 1208.26 384.199 1211.83 384.881C1215.46 385.562 1218.94 386.471 1222.28 387.607C1225.68 388.686 1228.88 389.964 1231.88 391.44C1236.87 393.755 1242.89 393.141 1246.86 389.338L1250.05 386.278C1250.99 385.381 1252.23 384.881 1253.53 384.881C1256.31 384.881 1258.56 387.133 1258.56 389.912V414.603C1258.56 416.725 1256.84 418.445 1254.72 418.445C1253.36 418.445 1252.11 417.722 1251.37 416.589C1249.25 413.372 1246.69 410.356 1243.69 407.541C1240.18 404.19 1236.19 401.294 1231.71 398.852C1227.24 396.41 1222.4 394.507 1217.19 393.144C1211.97 391.724 1206.54 391.014 1200.87 391.014C1198.1 391.014 1195.55 391.156 1193.23 391.44C1190.9 391.724 1188.89 392.179 1187.19 392.803C1185.5 393.428 1184.16 394.251 1183.2 395.274C1182.3 396.296 1181.84 397.517 1181.84 398.937C1181.84 400.868 1182.55 402.458 1183.97 403.707C1185.38 404.957 1187.48 406.064 1190.25 407.03C1193.09 407.938 1196.57 408.762 1200.7 409.5C1204.84 410.239 1209.65 411.034 1215.15 411.886C1222.11 413.021 1228.6 414.413 1234.6 416.06C1240.61 417.707 1245.79 419.95 1250.15 422.79C1254.57 425.629 1258.02 429.236 1260.51 433.609C1263.06 437.982 1264.34 443.491 1264.34 450.135C1264.34 455.531 1263.29 460.415 1261.19 464.788C1259.16 469.104 1256.1 472.767 1252.02 475.777C1248 478.787 1243.01 481.087 1237.07 482.677C1231.12 484.324 1224.29 485.148 1216.59 485.148C1212.97 485.148 1209.06 484.779 1204.87 484.04C1200.67 483.359 1196.51 482.365 1192.38 481.059C1188.3 479.696 1184.42 478.077 1180.74 476.203C1175.07 473.229 1167.77 473.175 1163.13 477.588L1157.98 482.483C1157.05 483.373 1155.8 483.87 1154.51 483.87C1151.73 483.87 1149.47 481.614 1149.47 478.832V448.738Z" stroke="#010101"/>
<path class="secondA" d="M1018.74 460.054C1018.74 455.646 1019.56 451.868 1021.2 448.719C1022.85 445.514 1025.17 442.823 1028.17 440.648C1031.17 438.415 1034.77 436.641 1038.96 435.324C1043.15 433.95 1047.79 432.891 1052.88 432.147C1058.04 431.403 1063.56 430.916 1069.45 430.687C1075.33 430.401 1081.45 430.258 1087.79 430.258V425.449C1087.79 418.122 1087.28 412.254 1086.26 407.846C1085.3 403.438 1083.8 400.06 1081.76 397.713C1079.78 395.366 1077.32 393.849 1074.37 393.162C1071.43 392.418 1068 392.046 1064.1 392.046C1062 392.046 1059.76 392.218 1057.39 392.561C1055.06 392.905 1053 393.305 1051.19 393.763C1053.79 394.05 1056.2 394.708 1058.4 395.738C1060.61 396.769 1062.51 398.057 1064.1 399.603C1065.68 401.148 1066.9 402.866 1067.75 404.755C1068.65 406.644 1069.11 408.561 1069.11 410.508C1069.11 412.912 1068.51 415.173 1067.32 417.291C1066.13 419.41 1064.49 421.27 1062.4 422.873C1060.3 424.419 1057.87 425.649 1055.09 426.565C1052.32 427.481 1049.35 427.939 1046.17 427.939C1043 427.939 1040.03 427.481 1037.26 426.565C1034.54 425.649 1032.13 424.419 1030.04 422.873C1028 421.27 1026.39 419.41 1025.2 417.291C1024.01 415.173 1023.41 412.912 1023.41 410.508C1023.41 407.302 1024.26 404.411 1025.96 401.835C1027.72 399.259 1030.07 396.998 1033.01 395.051C1036.01 393.048 1039.52 391.33 1043.54 389.899C1047.62 388.468 1051.98 387.295 1056.62 386.379C1061.26 385.463 1066.08 384.804 1071.06 384.404C1076.1 383.946 1081.11 383.717 1086.09 383.717C1094.93 383.717 1102.6 384.347 1109.11 385.606C1115.68 386.808 1121.11 388.983 1125.42 392.132C1129.78 395.223 1133.03 399.488 1135.18 404.926C1137.34 410.307 1138.41 417.148 1138.41 425.449V461.428C1138.41 465.721 1138.75 471.093 1138.75 473.134L1138.53 475.149C1138.45 475.846 1138.32 476.535 1138.12 477.209C1137.37 479.863 1135.84 482.326 1133.34 483.494C1129.99 485.06 1125.97 485.815 1120.75 485.815C1117.06 485.815 1113.61 485.614 1110.38 485.214C1107.21 484.813 1104.3 484.126 1101.64 483.153C1099.03 482.18 1096.77 480.892 1094.84 479.289C1092.92 477.686 1091.39 475.682 1090.25 473.278C1088.56 475.911 1086.29 478.058 1083.46 479.718C1080.63 481.321 1077.57 482.58 1074.29 483.496C1071 484.412 1067.69 485.013 1064.35 485.3C1061.01 485.643 1057.95 485.815 1055.18 485.815C1048.55 485.815 1042.92 485.099 1038.28 483.668C1033.63 482.294 1029.87 480.434 1026.98 478.087C1024.09 475.739 1022 473.02 1020.69 469.929C1019.39 466.78 1018.74 463.489 1018.74 460.054ZM1067.75 459.11C1067.75 463.346 1068.51 466.78 1070.04 469.414C1071.57 471.99 1074.09 473.278 1077.6 473.278C1080.54 473.278 1082.98 472.219 1084.9 470.101C1086.83 467.925 1087.79 465.034 1087.79 461.428V438.158C1083.71 438.158 1080.37 438.53 1077.77 439.274C1075.16 440.018 1073.1 441.22 1071.57 442.88C1070.1 444.483 1069.08 446.63 1068.51 449.321C1068 452.011 1067.75 455.274 1067.75 459.11Z" fill="white" stroke="#010101"/>
<path class="i" d="M1149.91 135.708C1145.93 133.79 1141.59 132.565 1136.89 132.032C1132.2 131.5 1105.85 126.669 1091.42 147.056C1091.42 147.056 1086.48 153.339 1086.82 163.197C1086.82 167.672 1087.9 171.881 1090.04 175.823C1092.18 179.766 1095.09 183.228 1098.77 186.212C1102.54 189.088 1106.88 191.379 1111.78 193.084C1116.78 194.789 1122.14 195.641 1127.86 195.641C1133.58 195.641 1138.93 194.789 1143.94 193.084C1148.94 191.379 1153.33 189.088 1157.1 186.212C1160.88 183.228 1163.84 179.766 1165.99 175.823C1168.13 171.881 1169.2 167.672 1169.2 163.197C1169.2 159.575 1168.38 156.006 1166.75 152.489C1165.22 148.973 1163.03 145.777 1160.17 142.9C1157.31 140.023 1153.89 137.626 1149.91 135.708Z" fill="white" stroke="#010101"/>
<path class="upperA" d="M674.832 315.236C674.832 307.502 676.29 300.874 679.207 295.35C682.123 289.726 686.246 285.006 691.576 281.189C696.906 277.273 703.292 274.159 710.734 271.849C718.176 269.439 726.423 267.581 735.474 266.275C744.625 264.97 754.431 264.116 764.89 263.714C775.349 263.212 786.21 262.961 797.473 262.961V254.525C797.473 241.67 796.568 231.376 794.758 223.642C793.049 215.909 790.383 209.984 786.763 205.866C783.243 201.748 778.869 199.087 773.639 197.882C768.41 196.576 762.325 195.923 755.386 195.923C751.665 195.923 747.693 196.225 743.469 196.827C739.346 197.43 735.675 198.133 732.457 198.936C737.083 199.438 741.357 200.593 745.279 202.401C749.201 204.209 752.57 206.469 755.386 209.18C758.202 211.892 760.364 214.905 761.873 218.219C763.482 221.533 764.286 224.898 764.286 228.312C764.286 232.53 763.23 236.498 761.118 240.213C759.007 243.929 756.09 247.193 752.369 250.006C748.648 252.717 744.324 254.876 739.396 256.483C734.468 258.09 729.188 258.894 723.557 258.894C717.925 258.894 712.645 258.09 707.717 256.483C702.89 254.876 698.616 252.717 694.895 250.006C691.275 247.193 688.408 243.929 686.297 240.213C684.185 236.498 683.129 232.53 683.129 228.312C683.129 222.688 684.637 217.616 687.654 213.097C690.772 208.578 694.945 204.611 700.175 201.196C705.505 197.681 711.74 194.668 718.88 192.157C726.121 189.646 733.865 187.588 742.111 185.981C750.358 184.374 758.906 183.219 767.756 182.516C776.706 181.712 785.607 181.311 794.456 181.311C810.145 181.311 823.772 182.415 835.337 184.625C847.003 186.734 856.657 190.55 864.3 196.074C872.044 201.497 877.827 208.979 881.648 218.52C885.47 227.961 887.38 239.962 887.38 254.525V317.646C887.38 325.178 887.984 334.603 887.984 338.184L887.588 341.706C887.45 342.936 887.209 344.152 886.868 345.342C885.535 349.99 882.818 354.292 878.432 356.328C872.47 359.096 865.308 360.43 856.003 360.43C849.467 360.43 843.332 360.078 837.6 359.375C831.968 358.672 826.789 357.467 822.062 355.76C817.436 354.052 813.413 351.793 809.994 348.981C806.575 346.168 803.859 342.653 801.848 338.435C798.831 343.055 794.808 346.821 789.78 349.734C784.752 352.546 779.321 354.755 773.488 356.362C767.655 357.969 761.772 359.024 755.839 359.526C749.905 360.128 744.475 360.43 739.547 360.43C727.78 360.43 717.774 359.174 709.527 356.664C701.281 354.253 694.593 350.989 689.464 346.872C684.335 342.754 680.614 337.983 678.301 332.56C675.988 327.036 674.832 321.262 674.832 315.236ZM761.873 313.579C761.873 321.01 763.23 327.036 765.946 331.656C768.661 336.176 773.136 338.435 779.371 338.435C784.601 338.435 788.925 336.577 792.345 332.861C795.764 329.045 797.473 323.973 797.473 317.646V276.821C790.233 276.821 784.299 277.473 779.673 278.779C775.047 280.085 771.376 282.194 768.661 285.106C766.046 287.918 764.236 291.685 763.23 296.405C762.325 301.125 761.873 306.85 761.873 313.579Z" fill="white" stroke="#010101"/>
<path class="g" d="M843.204 544.575C843.204 540.773 845.162 537.051 849.077 533.408C853.072 529.764 859.624 526.359 868.733 523.191C856.108 516.538 849.796 506.756 849.796 493.846C849.796 490.044 850.395 486.361 851.594 482.797C852.792 479.154 854.63 475.748 857.107 472.58C859.664 469.412 862.86 466.6 866.695 464.145C870.61 461.69 875.205 459.71 880.478 458.205C871.769 454.482 865.177 449.73 860.703 443.949C856.228 438.088 853.991 431.395 853.991 423.871C853.991 418.247 855.509 412.862 858.545 407.713C861.661 402.565 866.336 398.051 872.568 394.17C878.8 390.21 886.671 387.081 896.179 384.784C905.687 382.488 916.874 381.339 929.738 381.339C936.449 381.339 942.682 381.656 948.435 382.29C954.268 382.923 959.701 383.834 964.735 385.022C967.292 380.666 970.368 376.943 973.963 373.854C977.559 370.766 981.474 368.231 985.709 366.251C990.024 364.271 994.578 362.806 999.372 361.855C1004.17 360.905 1009.04 360.43 1013.99 360.43C1017.43 360.43 1020.63 360.945 1023.58 361.974C1026.54 362.925 1029.1 364.231 1031.25 365.895C1033.49 367.558 1035.25 369.498 1036.53 371.716C1037.8 373.934 1038.44 376.31 1038.44 378.844C1038.44 381.379 1037.8 383.755 1036.53 385.972C1035.25 388.19 1033.49 390.131 1031.25 391.794C1029.1 393.457 1026.54 394.804 1023.58 395.833C1020.63 396.784 1017.43 397.259 1013.99 397.259C1010.64 397.259 1007.44 396.784 1004.41 395.833C1001.45 394.804 998.853 393.457 996.615 391.794C994.378 390.131 992.62 388.19 991.342 385.972C990.064 383.755 989.424 381.379 989.424 378.844C989.424 376.785 989.904 374.726 990.863 372.666C987.427 374.092 984.151 376.033 981.035 378.488C977.998 380.943 975.402 383.953 973.244 387.517C983.791 391.081 991.781 395.992 997.215 402.249C1002.73 408.426 1005.48 415.634 1005.48 423.871C1005.48 430.286 1003.81 436.108 1000.45 441.335C997.095 446.562 992.181 451.037 985.709 454.76C979.317 458.482 971.406 461.373 961.978 463.432C952.55 465.412 941.803 466.402 929.738 466.402C914.556 466.402 901.572 464.858 890.786 461.769C886.231 462.64 883.035 463.868 881.197 465.452C879.44 467.036 878.561 468.66 878.561 470.323C878.561 471.432 878.96 472.541 879.759 473.649C880.558 474.758 882.076 475.748 884.314 476.62C886.631 477.491 889.787 478.243 893.782 478.877C897.777 479.431 903.011 479.708 909.483 479.708H957.663C966.453 479.708 974.563 480.461 981.993 481.966C989.424 483.391 995.816 485.807 1001.17 489.213C1006.6 492.539 1010.84 497.014 1013.87 502.638C1016.91 508.261 1018.43 515.231 1018.43 523.547C1018.43 530.675 1016.79 537.091 1013.51 542.793C1010.32 548.575 1005.05 553.485 997.694 557.525C990.423 561.564 980.875 564.653 969.049 566.791C957.224 568.93 942.762 569.999 925.663 569.999C910.801 569.999 898.137 569.326 887.669 567.979C877.282 566.633 868.773 564.811 862.141 562.514C855.589 560.218 850.795 557.525 847.759 554.436C844.722 551.347 843.204 548.06 843.204 544.575ZM929.738 459.037C932.774 459.037 935.291 458.403 937.288 457.136C939.366 455.789 941.004 453.73 942.202 450.958C943.401 448.107 944.24 444.463 944.719 440.028C945.199 435.593 945.438 430.207 945.438 423.871C945.438 417.535 945.199 412.149 944.719 407.713C944.24 403.278 943.401 399.674 942.202 396.902C941.004 394.051 939.366 391.992 937.288 390.725C935.291 389.378 932.774 388.705 929.738 388.705C926.701 388.705 924.145 389.378 922.067 390.725C920.07 391.992 918.472 394.051 917.273 396.902C916.074 399.674 915.196 403.278 914.636 407.713C914.157 412.149 913.917 417.535 913.917 423.871C913.917 430.207 914.157 435.593 914.636 440.028C915.196 444.463 916.074 448.107 917.273 450.958C918.472 453.73 920.07 455.789 922.067 457.136C924.145 458.403 926.701 459.037 929.738 459.037ZM862.381 543.387C862.381 544.575 862.62 545.842 863.1 547.189C863.659 548.535 864.698 549.882 866.216 551.228C867.814 552.575 870.011 553.842 872.808 555.03C875.684 556.218 879.479 557.287 884.194 558.238C888.908 559.188 894.661 559.94 901.452 560.495C908.244 561.049 916.354 561.326 925.783 561.326C937.049 561.326 947.036 560.851 955.746 559.901C964.455 558.95 971.766 557.644 977.679 555.98C983.671 554.396 988.186 552.456 991.222 550.159C994.338 547.941 995.896 545.526 995.896 542.912C995.896 539.11 993.06 536.338 987.387 534.596C981.714 532.932 973.524 532.101 962.817 532.101H915.236C908.044 532.101 901.452 531.705 895.46 530.913C889.467 530.121 883.994 528.972 879.04 527.467C872.888 530.002 868.573 532.576 866.096 535.19C863.619 537.883 862.381 540.615 862.381 543.387Z" fill="white" stroke="#010101"/>
</g>
<path d="M530 891V639H1065V891H530Z" fill="#22272E" stroke="#010101" stroke-width="4"/>
<path class="dev" d="M616.622 714.397C616.165 714.026 615.599 713.814 615.01 713.794H612.596V728.254H615.01C615.6 728.234 616.167 728.023 616.625 727.651C617.159 727.248 617.428 726.645 617.428 725.843V716.205C617.431 715.403 617.156 714.8 616.622 714.397ZM655.921 690H606.076C602.724 690 600.007 692.711 600 696.062V745.938C600.007 749.289 602.724 752 606.076 752H655.924C659.276 752 661.993 749.289 662 745.938V696.062C661.995 694.453 661.353 692.911 660.213 691.775C659.074 690.638 657.53 690 655.921 690ZM621.337 725.87C621.337 728.471 619.732 732.418 614.648 732.408H608.228V709.513H614.783C619.687 709.513 621.334 713.453 621.337 716.054V725.87ZM635.269 713.601H627.898V718.92H632.407V723.012H627.898V728.326H635.276V732.418H626.672C625.93 732.437 625.211 732.16 624.673 731.648C624.135 731.137 623.822 730.432 623.803 729.69V712.379C623.786 711.637 624.063 710.919 624.574 710.381C625.086 709.844 625.79 709.532 626.531 709.513H635.276L635.269 713.601ZM649.614 729.556C647.786 733.81 644.514 732.966 643.05 729.556L637.718 709.516H642.227L646.336 725.254L650.427 709.516H654.939L649.614 729.556Z" fill="#4BADD0"/>
<path fill-rule="evenodd" clip-rule="evenodd" class="linkedin" d="M600 783.18C600 781.806 600.546 780.489 601.517 779.517C602.489 778.546 603.806 778 605.18 778H656.815C657.495 777.999 658.17 778.132 658.799 778.392C659.428 778.652 660 779.033 660.482 779.514C660.963 779.995 661.345 780.567 661.606 781.196C661.866 781.825 662 782.499 662 783.18V834.815C662.001 835.495 661.867 836.17 661.607 836.799C661.347 837.428 660.965 838 660.484 838.482C660.002 838.963 659.431 839.345 658.802 839.606C658.173 839.866 657.498 840 656.817 840H605.18C604.499 840 603.826 839.866 603.197 839.605C602.568 839.345 601.997 838.963 601.516 838.482C601.035 838.001 600.654 837.429 600.393 836.8C600.133 836.172 600 835.498 600 834.817V783.18ZM624.541 801.639H632.936V805.855C634.148 803.431 637.248 801.25 641.906 801.25C650.837 801.25 652.954 806.078 652.954 814.935V831.343H643.916V816.953C643.916 811.908 642.704 809.062 639.626 809.062C635.357 809.062 633.581 812.131 633.581 816.953V831.343H624.541V801.639ZM609.041 830.956H618.081V801.25H609.041V830.954V830.956ZM619.375 791.561C619.392 792.335 619.254 793.105 618.97 793.825C618.685 794.545 618.26 795.201 617.719 795.755C617.177 796.308 616.531 796.748 615.817 797.048C615.103 797.348 614.337 797.503 613.562 797.503C612.788 797.503 612.022 797.348 611.308 797.048C610.594 796.748 609.948 796.308 609.406 795.755C608.865 795.201 608.44 794.545 608.155 793.825C607.871 793.105 607.733 792.335 607.75 791.561C607.783 790.042 608.411 788.596 609.497 787.533C610.583 786.47 612.043 785.875 613.562 785.875C615.082 785.875 616.542 786.47 617.628 787.533C618.714 788.596 619.342 790.042 619.375 791.561Z" fill="#4BADD0"/>
<path d="M700.071 829.494H689V794.106H700.562C704.042 794.106 707.02 794.814 709.495 796.231C711.971 797.637 713.869 799.658 715.189 802.296C716.508 804.923 717.168 808.068 717.168 811.731C717.168 815.417 716.502 818.591 715.171 821.252C713.84 823.901 711.901 825.94 709.355 827.369C706.809 828.786 703.715 829.494 700.071 829.494ZM693.344 825.693H699.791C702.757 825.693 705.215 825.128 707.166 823.999C709.116 822.87 710.57 821.263 711.527 819.178C712.485 817.093 712.964 814.611 712.964 811.731C712.964 808.874 712.491 806.415 711.545 804.353C710.599 802.279 709.186 800.689 707.306 799.583C705.426 798.466 703.084 797.907 700.281 797.907H693.344V825.693Z" fill="#F7F3E7"/>
<path d="M731.813 830.116C730.108 830.116 728.56 829.799 727.171 829.166C725.781 828.521 724.677 827.593 723.86 826.384C723.042 825.163 722.633 823.688 722.633 821.96C722.633 820.44 722.937 819.207 723.544 818.262C724.152 817.306 724.963 816.558 725.979 816.016C726.995 815.475 728.116 815.072 729.343 814.807C730.581 814.53 731.824 814.311 733.074 814.15C734.709 813.943 736.034 813.787 737.05 813.683C738.078 813.568 738.825 813.378 739.293 813.113C739.771 812.848 740.011 812.387 740.011 811.731V811.593C740.011 809.888 739.538 808.563 738.592 807.618C737.658 806.674 736.239 806.201 734.335 806.201C732.362 806.201 730.814 806.628 729.693 807.48C728.572 808.333 727.784 809.243 727.328 810.21L723.404 808.828C724.105 807.215 725.039 805.96 726.207 805.061C727.387 804.151 728.671 803.517 730.061 803.16C731.462 802.792 732.84 802.607 734.195 802.607C735.059 802.607 736.052 802.711 737.173 802.918C738.306 803.114 739.398 803.523 740.449 804.145C741.511 804.767 742.393 805.706 743.094 806.962C743.795 808.217 744.145 809.899 744.145 812.007V829.494H740.011V825.9H739.801C739.52 826.476 739.053 827.092 738.399 827.749C737.745 828.406 736.875 828.964 735.789 829.425C734.703 829.886 733.378 830.116 731.813 830.116ZM732.443 826.453C734.078 826.453 735.456 826.136 736.577 825.503C737.71 824.869 738.563 824.051 739.135 823.049C739.719 822.047 740.011 820.993 740.011 819.887V816.154C739.836 816.362 739.45 816.552 738.855 816.725C738.271 816.886 737.593 817.03 736.823 817.157C736.064 817.272 735.322 817.375 734.598 817.468C733.886 817.548 733.307 817.617 732.864 817.675C731.789 817.813 730.785 818.038 729.851 818.349C728.928 818.648 728.181 819.103 727.608 819.714C727.048 820.313 726.768 821.131 726.768 822.168C726.768 823.585 727.299 824.656 728.362 825.382C729.436 826.096 730.797 826.453 732.443 826.453Z" fill="#F7F3E7"/>
<path d="M772.729 802.953L762.779 829.494H758.575L748.625 802.953H753.109L760.537 824.103H760.817L768.245 802.953H772.729Z" fill="#F7F3E7"/>
<path d="M778.186 829.494V802.953H782.32V829.494H778.186ZM780.288 798.529C779.482 798.529 778.787 798.259 778.203 797.717C777.631 797.176 777.345 796.525 777.345 795.765C777.345 795.004 777.631 794.354 778.203 793.812C778.787 793.271 779.482 793 780.288 793C781.094 793 781.783 793.271 782.355 793.812C782.939 794.354 783.231 795.004 783.231 795.765C783.231 796.525 782.939 797.176 782.355 797.717C781.783 798.259 781.094 798.529 780.288 798.529Z" fill="#F7F3E7"/>
<path d="M833.195 805.165H828.85C828.594 803.932 828.144 802.849 827.502 801.916C826.871 800.983 826.1 800.2 825.189 799.566C824.29 798.921 823.292 798.437 822.194 798.115C821.096 797.792 819.952 797.631 818.76 797.631C816.588 797.631 814.62 798.172 812.857 799.255C811.105 800.338 809.71 801.933 808.67 804.042C807.643 806.15 807.129 808.736 807.129 811.8C807.129 814.864 807.643 817.45 808.67 819.558C809.71 821.667 811.105 823.262 812.857 824.345C814.62 825.428 816.588 825.969 818.76 825.969C819.952 825.969 821.096 825.808 822.194 825.485C823.292 825.163 824.29 824.685 825.189 824.051C826.1 823.406 826.871 822.617 827.502 821.684C828.144 820.739 828.594 819.656 828.85 818.435H833.195C832.868 820.244 832.272 821.862 831.408 823.291C830.544 824.719 829.469 825.935 828.185 826.937C826.9 827.927 825.458 828.682 823.858 829.2C822.27 829.719 820.571 829.978 818.76 829.978C815.701 829.978 812.98 829.241 810.597 827.766C808.215 826.292 806.341 824.195 804.974 821.476C803.608 818.758 802.925 815.532 802.925 811.8C802.925 808.068 803.608 804.842 804.974 802.124C806.341 799.405 808.215 797.308 810.597 795.834C812.98 794.359 815.701 793.622 818.76 793.622C820.571 793.622 822.27 793.881 823.858 794.4C825.458 794.918 826.9 795.678 828.185 796.681C829.469 797.671 830.544 798.881 831.408 800.309C832.272 801.726 832.868 803.345 833.195 805.165Z" fill="#F7F3E7"/>
<path d="M843.788 813.528V829.494H839.654V794.106H843.788V807.1H844.139C844.769 805.729 845.715 804.641 846.977 803.834C848.25 803.016 849.943 802.607 852.057 802.607C853.89 802.607 855.496 802.97 856.874 803.696C858.252 804.41 859.321 805.51 860.08 806.996C860.85 808.471 861.236 810.349 861.236 812.629V829.494H857.102V812.906C857.102 810.798 856.547 809.168 855.438 808.016C854.34 806.852 852.816 806.271 850.866 806.271C849.511 806.271 848.296 806.553 847.222 807.117C846.159 807.682 845.318 808.505 844.699 809.588C844.092 810.671 843.788 811.984 843.788 813.528Z" fill="#F7F3E7"/>
<path d="M876.717 830.116C875.012 830.116 873.464 829.799 872.075 829.166C870.685 828.521 869.581 827.593 868.764 826.384C867.947 825.163 867.538 823.688 867.538 821.96C867.538 820.44 867.841 819.207 868.449 818.262C869.056 817.306 869.868 816.558 870.884 816.016C871.9 815.475 873.021 815.072 874.247 814.807C875.485 814.53 876.729 814.311 877.978 814.15C879.613 813.943 880.939 813.787 881.955 813.683C882.982 813.568 883.73 813.378 884.197 813.113C884.676 812.848 884.915 812.387 884.915 811.731V811.593C884.915 809.888 884.442 808.563 883.496 807.618C882.562 806.674 881.143 806.201 879.239 806.201C877.266 806.201 875.718 806.628 874.597 807.48C873.476 808.333 872.688 809.243 872.232 810.21L868.309 808.828C869.009 807.215 869.943 805.96 871.111 805.061C872.291 804.151 873.575 803.517 874.965 803.16C876.367 802.792 877.745 802.607 879.099 802.607C879.963 802.607 880.956 802.711 882.077 802.918C883.21 803.114 884.302 803.523 885.353 804.145C886.416 804.767 887.297 805.706 887.998 806.962C888.699 808.217 889.049 809.899 889.049 812.007V829.494H884.915V825.9H884.705C884.425 826.476 883.957 827.092 883.303 827.749C882.649 828.406 881.779 828.964 880.693 829.425C879.607 829.886 878.282 830.116 876.717 830.116ZM877.348 826.453C878.982 826.453 880.361 826.136 881.482 825.503C882.614 824.869 883.467 824.051 884.039 823.049C884.623 822.047 884.915 820.993 884.915 819.887V816.154C884.74 816.362 884.354 816.552 883.759 816.725C883.175 816.886 882.498 817.03 881.727 817.157C880.968 817.272 880.226 817.375 879.502 817.468C878.79 817.548 878.212 817.617 877.768 817.675C876.694 817.813 875.689 818.038 874.755 818.349C873.832 818.648 873.085 819.103 872.513 819.714C871.952 820.313 871.672 821.131 871.672 822.168C871.672 823.585 872.203 824.656 873.266 825.382C874.34 826.096 875.701 826.453 877.348 826.453Z" fill="#F7F3E7"/>
<path d="M907.456 840C905.459 840 903.742 839.747 902.305 839.24C900.869 838.744 899.672 838.088 898.714 837.27C897.768 836.463 897.015 835.6 896.455 834.678L899.748 832.397C900.122 832.881 900.595 833.434 901.167 834.056C901.739 834.689 902.522 835.237 903.514 835.697C904.519 836.17 905.832 836.406 907.456 836.406C909.628 836.406 911.42 835.888 912.833 834.851C914.247 833.814 914.953 832.19 914.953 829.978V824.587H914.603C914.299 825.071 913.867 825.67 913.306 826.384C912.758 827.087 911.963 827.714 910.924 828.267C909.896 828.809 908.507 829.079 906.755 829.079C904.583 829.079 902.633 828.573 900.904 827.559C899.187 826.545 897.827 825.071 896.823 823.135C895.83 821.2 895.334 818.85 895.334 816.085C895.334 813.367 895.818 810.999 896.788 808.983C897.757 806.956 899.106 805.389 900.834 804.283C902.562 803.166 904.559 802.607 906.825 802.607C908.577 802.607 909.966 802.895 910.994 803.471C912.034 804.036 912.828 804.681 913.377 805.407C913.937 806.121 914.369 806.708 914.673 807.169H915.093V802.953H919.087V830.254C919.087 832.535 918.562 834.39 917.511 835.818C916.471 837.258 915.07 838.312 913.306 838.981C911.555 839.66 909.604 840 907.456 840ZM907.315 825.416C908.974 825.416 910.375 825.042 911.52 824.293C912.664 823.544 913.534 822.467 914.13 821.062C914.725 819.656 915.023 817.975 915.023 816.016C915.023 814.104 914.731 812.416 914.147 810.953C913.563 809.49 912.699 808.344 911.555 807.515C910.41 806.685 908.997 806.271 907.315 806.271C905.564 806.271 904.104 806.708 902.936 807.584C901.78 808.459 900.91 809.634 900.326 811.109C899.754 812.583 899.468 814.219 899.468 816.016C899.468 817.859 899.76 819.489 900.344 820.906C900.939 822.312 901.815 823.418 902.971 824.224C904.139 825.019 905.587 825.416 907.315 825.416Z" fill="#F7F3E7"/>
<path d="M934.573 830.116C932.868 830.116 931.32 829.799 929.931 829.166C928.541 828.521 927.437 827.593 926.62 826.384C925.802 825.163 925.393 823.688 925.393 821.96C925.393 820.44 925.697 819.207 926.304 818.262C926.912 817.306 927.723 816.558 928.739 816.016C929.755 815.475 930.876 815.072 932.103 814.807C933.341 814.53 934.584 814.311 935.834 814.15C937.469 813.943 938.794 813.787 939.81 813.683C940.838 813.568 941.585 813.378 942.053 813.113C942.531 812.848 942.771 812.387 942.771 811.731V811.593C942.771 809.888 942.298 808.563 941.352 807.618C940.418 806.674 938.999 806.201 937.095 806.201C935.122 806.201 933.574 806.628 932.453 807.48C931.332 808.333 930.544 809.243 930.088 810.21L926.164 808.828C926.865 807.215 927.799 805.96 928.967 805.061C930.147 804.151 931.431 803.517 932.821 803.16C934.222 802.792 935.6 802.607 936.955 802.607C937.819 802.607 938.812 802.711 939.933 802.918C941.066 803.114 942.158 803.523 943.209 804.145C944.271 804.767 945.153 805.706 945.854 806.962C946.555 808.217 946.905 809.899 946.905 812.007V829.494H942.771V825.9H942.561C942.28 826.476 941.813 827.092 941.159 827.749C940.505 828.406 939.635 828.964 938.549 829.425C937.463 829.886 936.138 830.116 934.573 830.116ZM935.203 826.453C936.838 826.453 938.216 826.136 939.337 825.503C940.47 824.869 941.323 824.051 941.895 823.049C942.479 822.047 942.771 820.993 942.771 819.887V816.154C942.596 816.362 942.21 816.552 941.615 816.725C941.031 816.886 940.353 817.03 939.583 817.157C938.824 817.272 938.082 817.375 937.358 817.468C936.646 817.548 936.067 817.617 935.624 817.675C934.549 817.813 933.545 818.038 932.611 818.349C931.688 818.648 930.941 819.103 930.368 819.714C929.808 820.313 929.528 821.131 929.528 822.168C929.528 823.585 930.059 824.656 931.122 825.382C932.196 826.096 933.557 826.453 935.203 826.453Z" fill="#F7F3E7"/>
<path d="M973.51 808.897L969.796 809.934C969.562 809.323 969.218 808.73 968.762 808.154C968.319 807.567 967.711 807.083 966.94 806.703C966.17 806.322 965.183 806.132 963.98 806.132C962.333 806.132 960.961 806.507 959.863 807.256C958.777 807.993 958.234 808.932 958.234 810.072C958.234 811.086 958.608 811.886 959.355 812.474C960.103 813.061 961.271 813.551 962.859 813.943L966.853 814.91C969.259 815.486 971.051 816.368 972.231 817.554C973.41 818.729 974 820.244 974 822.099C974 823.619 973.556 824.978 972.669 826.176C971.793 827.375 970.567 828.319 968.99 829.01C967.413 829.701 965.58 830.047 963.49 830.047C960.745 830.047 958.474 829.46 956.675 828.285C954.877 827.11 953.738 825.393 953.259 823.135L957.183 822.168C957.557 823.596 958.264 824.667 959.303 825.382C960.354 826.096 961.726 826.453 963.419 826.453C965.346 826.453 966.876 826.05 968.009 825.243C969.154 824.425 969.726 823.446 969.726 822.306C969.726 821.384 969.399 820.612 968.745 819.99C968.091 819.357 967.086 818.885 965.732 818.574L961.247 817.537C958.783 816.961 956.973 816.068 955.817 814.858C954.672 813.637 954.1 812.111 954.1 810.279C954.1 808.782 954.526 807.457 955.379 806.305C956.243 805.153 957.417 804.249 958.9 803.592C960.395 802.936 962.088 802.607 963.98 802.607C966.643 802.607 968.733 803.183 970.251 804.335C971.781 805.487 972.867 807.008 973.51 808.897Z" fill="#F7F3E7"/>
<path d="M711.062 742.825C707.49 742.825 704.333 742.341 701.589 741.374C698.846 740.417 696.541 739.006 694.673 737.14C692.805 735.274 691.393 732.987 690.436 730.28C689.479 727.573 689 724.474 689 720.984C689 717.609 689.484 714.59 690.453 711.929C691.434 709.268 692.852 707.011 694.708 705.156C696.576 703.29 698.84 701.867 701.502 700.888C704.175 699.909 707.198 699.419 710.572 699.419C713.852 699.419 716.724 699.949 719.187 701.009C721.661 702.057 723.728 703.48 725.385 705.277C727.054 707.062 728.304 709.073 729.132 711.307C729.973 713.542 730.393 715.846 730.393 718.219C730.393 719.889 730.311 721.583 730.148 723.299C729.984 725.016 729.64 726.594 729.115 728.034C728.589 729.462 727.778 730.614 726.681 731.49C725.595 732.365 724.125 732.803 722.268 732.803C721.451 732.803 720.553 732.676 719.572 732.423C718.591 732.169 717.722 731.749 716.963 731.161C716.204 730.574 715.755 729.785 715.615 728.794H715.405C715.125 729.462 714.693 730.096 714.109 730.695C713.537 731.294 712.784 731.772 711.85 732.129C710.928 732.486 709.802 732.642 708.471 732.596C706.953 732.538 705.617 732.204 704.461 731.593C703.305 730.971 702.337 730.13 701.554 729.071C700.784 727.999 700.2 726.761 699.804 725.356C699.418 723.939 699.226 722.412 699.226 720.776C699.226 719.221 699.459 717.799 699.926 716.508C700.393 715.218 701.041 714.089 701.87 713.122C702.71 712.154 703.691 711.382 704.811 710.806C705.944 710.219 707.163 709.856 708.471 709.718C709.638 709.602 710.7 709.654 711.658 709.873C712.615 710.081 713.403 710.397 714.021 710.824C714.64 711.238 715.031 711.699 715.195 712.206H715.405V710.271H719.117V725.891C719.117 726.859 719.391 727.711 719.94 728.449C720.488 729.186 721.288 729.554 722.339 729.554C723.529 729.554 724.44 729.151 725.07 728.345C725.712 727.538 726.15 726.294 726.383 724.613C726.628 722.931 726.751 720.776 726.751 718.15C726.751 716.606 726.535 715.086 726.103 713.588C725.683 712.079 725.041 710.668 724.177 709.355C723.325 708.042 722.245 706.884 720.938 705.882C719.63 704.879 718.095 704.096 716.333 703.532C714.582 702.956 712.591 702.668 710.362 702.668C707.619 702.668 705.161 703.088 702.99 703.929C700.831 704.758 698.992 705.974 697.475 707.575C695.969 709.165 694.819 711.1 694.025 713.381C693.243 715.65 692.852 718.231 692.852 721.122C692.852 724.06 693.243 726.669 694.025 728.95C694.819 731.231 695.986 733.154 697.527 734.721C699.08 736.288 701 737.474 703.288 738.281C705.576 739.098 708.214 739.507 711.202 739.507C712.486 739.507 713.753 739.386 715.002 739.144C716.251 738.903 717.354 738.638 718.311 738.35C719.268 738.062 719.957 737.849 720.377 737.71L721.358 740.89C720.634 741.189 719.689 741.489 718.521 741.788C717.366 742.088 716.128 742.335 714.809 742.531C713.502 742.727 712.253 742.825 711.062 742.825ZM709.031 729.071C710.595 729.071 711.862 728.76 712.831 728.137C713.8 727.515 714.506 726.577 714.949 725.321C715.393 724.065 715.615 722.481 715.615 720.569C715.615 718.634 715.37 717.125 714.879 716.042C714.389 714.959 713.665 714.199 712.708 713.761C711.751 713.323 710.572 713.104 709.171 713.104C707.84 713.104 706.702 713.45 705.757 714.141C704.823 714.821 704.105 715.731 703.603 716.871C703.113 718 702.868 719.233 702.868 720.569C702.868 722.044 703.066 723.432 703.463 724.733C703.86 726.024 704.508 727.072 705.407 727.878C706.305 728.673 707.514 729.071 709.031 729.071Z" fill="#F7F3E7"/>
<path d="M746.734 734.047C744.493 734.047 742.514 733.488 740.798 732.371C739.082 731.242 737.74 729.652 736.771 727.602C735.802 725.54 735.318 723.103 735.318 720.293C735.318 717.505 735.802 715.086 736.771 713.035C737.74 710.985 739.088 709.401 740.816 708.283C742.543 707.166 744.539 706.607 746.804 706.607C748.555 706.607 749.938 706.895 750.954 707.471C751.981 708.036 752.763 708.681 753.3 709.407C753.849 710.121 754.275 710.708 754.578 711.169H754.929V698.106H759.061V733.494H755.069V729.416H754.578C754.275 729.9 753.843 730.511 753.283 731.248C752.722 731.974 751.923 732.624 750.884 733.2C749.845 733.765 748.462 734.047 746.734 734.047ZM747.294 730.384C748.952 730.384 750.353 729.958 751.497 729.105C752.641 728.241 753.51 727.049 754.106 725.528C754.701 723.996 754.999 722.228 754.999 720.224C754.999 718.242 754.707 716.508 754.123 715.022C753.539 713.525 752.676 712.361 751.532 711.532C750.388 710.691 748.975 710.271 747.294 710.271C745.543 710.271 744.084 710.714 742.917 711.601C741.761 712.477 740.892 713.669 740.308 715.178C739.736 716.675 739.45 718.357 739.45 720.224C739.45 722.113 739.742 723.829 740.325 725.373C740.921 726.905 741.796 728.126 742.952 729.036C744.119 729.935 745.567 730.384 747.294 730.384Z" fill="#F7F3E7"/>
<path d="M775.117 734.116C773.413 734.116 771.866 733.799 770.477 733.166C769.088 732.521 767.985 731.593 767.168 730.384C766.351 729.163 765.942 727.688 765.942 725.96C765.942 724.44 766.246 723.207 766.853 722.262C767.46 721.306 768.271 720.558 769.286 720.016C770.302 719.475 771.423 719.072 772.648 718.807C773.886 718.53 775.129 718.311 776.378 718.15C778.012 717.943 779.337 717.787 780.353 717.683C781.38 717.568 782.127 717.378 782.594 717.113C783.072 716.848 783.312 716.387 783.312 715.731V715.593C783.312 713.888 782.839 712.563 781.893 711.618C780.96 710.674 779.541 710.201 777.639 710.201C775.666 710.201 774.119 710.628 772.999 711.48C771.878 712.333 771.09 713.243 770.635 714.21L766.713 712.828C767.413 711.215 768.347 709.96 769.514 709.061C770.693 708.151 771.977 707.517 773.366 707.16C774.767 706.792 776.144 706.607 777.499 706.607C778.362 706.607 779.355 706.711 780.475 706.918C781.607 707.114 782.699 707.523 783.75 708.145C784.812 708.767 785.693 709.706 786.393 710.962C787.094 712.217 787.444 713.899 787.444 716.007V733.494H783.312V729.9H783.102C782.821 730.476 782.355 731.092 781.701 731.749C781.047 732.406 780.178 732.964 779.092 733.425C778.006 733.886 776.681 734.116 775.117 734.116ZM775.748 730.453C777.382 730.453 778.759 730.136 779.88 729.503C781.012 728.869 781.864 728.051 782.436 727.049C783.02 726.047 783.312 724.993 783.312 723.887V720.154C783.137 720.362 782.751 720.552 782.156 720.725C781.572 720.886 780.895 721.03 780.125 721.157C779.366 721.272 778.625 721.375 777.901 721.468C777.189 721.548 776.611 721.617 776.168 721.675C775.094 721.813 774.09 722.038 773.156 722.349C772.234 722.648 771.487 723.103 770.915 723.714C770.355 724.313 770.074 725.131 770.074 726.168C770.074 727.585 770.606 728.656 771.668 729.382C772.742 730.096 774.102 730.453 775.748 730.453Z" fill="#F7F3E7"/>
<path d="M816.016 706.953L806.07 733.494H801.868L791.922 706.953H796.405L803.829 728.103H804.109L811.533 706.953H816.016Z" fill="#F7F3E7"/>
<path d="M821.47 733.494V706.953H825.602V733.494H821.47ZM823.571 702.529C822.766 702.529 822.071 702.259 821.487 701.717C820.915 701.176 820.629 700.525 820.629 699.765C820.629 699.004 820.915 698.354 821.487 697.812C822.071 697.271 822.766 697 823.571 697C824.376 697 825.065 697.271 825.637 697.812C826.221 698.354 826.513 699.004 826.513 699.765C826.513 700.525 826.221 701.176 825.637 701.717C825.065 702.259 824.376 702.529 823.571 702.529Z" fill="#F7F3E7"/>
<path d="M844.097 734.047C841.575 734.047 839.404 733.46 837.583 732.285C835.762 731.11 834.361 729.491 833.381 727.429C832.4 725.367 831.91 723.011 831.91 720.362C831.91 717.666 832.412 715.287 833.416 713.225C834.431 711.152 835.844 709.533 837.653 708.37C839.474 707.195 841.599 706.607 844.027 706.607C845.918 706.607 847.622 706.953 849.14 707.644C850.657 708.335 851.9 709.303 852.869 710.547C853.838 711.791 854.439 713.243 854.673 714.901H850.54C850.225 713.692 849.525 712.621 848.439 711.687C847.365 710.743 845.918 710.271 844.097 710.271C842.486 710.271 841.073 710.685 839.859 711.515C838.657 712.333 837.717 713.49 837.04 714.988C836.375 716.474 836.042 718.219 836.042 720.224C836.042 722.274 836.369 724.06 837.023 725.58C837.688 727.101 838.622 728.281 839.824 729.122C841.038 729.963 842.463 730.384 844.097 730.384C845.171 730.384 846.145 730.2 847.021 729.831C847.896 729.462 848.638 728.932 849.245 728.241C849.852 727.55 850.284 726.721 850.54 725.753H854.673C854.439 727.32 853.861 728.731 852.939 729.986C852.029 731.231 850.821 732.221 849.315 732.958C847.821 733.684 846.081 734.047 844.097 734.047Z" fill="#F7F3E7"/>
<path d="M864.846 717.528V733.494H860.714V698.106H864.846V711.1H865.196C865.826 709.729 866.772 708.641 868.033 707.834C869.305 707.016 870.998 706.607 873.11 706.607C874.943 706.607 876.548 706.97 877.926 707.696C879.303 708.41 880.371 709.51 881.13 710.996C881.9 712.471 882.286 714.349 882.286 716.629V733.494H878.153V716.906C878.153 714.798 877.599 713.168 876.49 712.016C875.393 710.852 873.869 710.271 871.92 710.271C870.566 710.271 869.352 710.553 868.278 711.117C867.215 711.682 866.375 712.505 865.756 713.588C865.149 714.671 864.846 715.984 864.846 717.528Z" fill="#F7F3E7"/>
<path d="M897.76 734.116C896.055 734.116 894.509 733.799 893.12 733.166C891.731 732.521 890.627 731.593 889.81 730.384C888.993 729.163 888.585 727.688 888.585 725.96C888.585 724.44 888.888 723.207 889.495 722.262C890.102 721.306 890.913 720.558 891.929 720.016C892.945 719.475 894.065 719.072 895.291 718.807C896.528 718.53 897.771 718.311 899.02 718.15C900.655 717.943 901.98 717.787 902.995 717.683C904.022 717.568 904.769 717.378 905.236 717.113C905.715 716.848 905.954 716.387 905.954 715.731V715.593C905.954 713.888 905.482 712.563 904.536 711.618C903.602 710.674 902.184 710.201 900.281 710.201C898.308 710.201 896.762 710.628 895.641 711.48C894.52 712.333 893.732 713.243 893.277 714.21L889.355 712.828C890.055 711.215 890.989 709.96 892.157 709.061C893.336 708.151 894.62 707.517 896.009 707.16C897.41 706.792 898.787 706.607 900.141 706.607C901.005 706.607 901.997 706.711 903.118 706.918C904.25 707.114 905.341 707.523 906.392 708.145C907.454 708.767 908.336 709.706 909.036 710.962C909.736 712.217 910.087 713.899 910.087 716.007V733.494H905.954V729.9H905.744C905.464 730.476 904.997 731.092 904.343 731.749C903.69 732.406 902.82 732.964 901.734 733.425C900.649 733.886 899.324 734.116 897.76 734.116ZM898.39 730.453C900.024 730.453 901.402 730.136 902.522 729.503C903.655 728.869 904.507 728.051 905.079 727.049C905.662 726.047 905.954 724.993 905.954 723.887V720.154C905.779 720.362 905.394 720.552 904.799 720.725C904.215 720.886 903.538 721.03 902.768 721.157C902.009 721.272 901.268 721.375 900.544 721.468C899.832 721.548 899.254 721.617 898.81 721.675C897.736 721.813 896.732 722.038 895.799 722.349C894.876 722.648 894.129 723.103 893.557 723.714C892.997 724.313 892.717 725.131 892.717 726.168C892.717 727.585 893.248 728.656 894.31 729.382C895.384 730.096 896.744 730.453 898.39 730.453Z" fill="#F7F3E7"/>
<path d="M928.485 744C926.489 744 924.773 743.747 923.337 743.24C921.901 742.744 920.705 742.088 919.748 741.27C918.802 740.463 918.049 739.6 917.489 738.678L920.781 736.397C921.154 736.881 921.627 737.434 922.199 738.056C922.771 738.689 923.553 739.237 924.545 739.697C925.549 740.17 926.862 740.406 928.485 740.406C930.656 740.406 932.448 739.888 933.86 738.851C935.273 737.814 935.979 736.19 935.979 733.978V728.587H935.629C935.325 729.071 934.893 729.67 934.333 730.384C933.785 731.087 932.991 731.714 931.952 732.267C930.925 732.809 929.536 733.079 927.785 733.079C925.613 733.079 923.664 732.573 921.936 731.559C920.22 730.545 918.86 729.071 917.857 727.135C916.864 725.2 916.368 722.85 916.368 720.085C916.368 717.367 916.853 714.999 917.822 712.983C918.79 710.956 920.139 709.389 921.866 708.283C923.594 707.166 925.59 706.607 927.855 706.607C929.606 706.607 930.995 706.895 932.022 707.471C933.061 708.036 933.855 708.681 934.403 709.407C934.964 710.121 935.395 710.708 935.699 711.169H936.119V706.953H940.111V734.254C940.111 736.535 939.586 738.39 938.536 739.818C937.497 741.258 936.096 742.312 934.333 742.981C932.582 743.66 930.633 744 928.485 744ZM928.345 729.416C930.002 729.416 931.403 729.042 932.547 728.293C933.691 727.544 934.561 726.467 935.156 725.062C935.751 723.656 936.049 721.975 936.049 720.016C936.049 718.104 935.757 716.416 935.174 714.953C934.59 713.49 933.726 712.344 932.582 711.515C931.438 710.685 930.026 710.271 928.345 710.271C926.594 710.271 925.135 710.708 923.967 711.584C922.812 712.459 921.942 713.634 921.358 715.109C920.786 716.583 920.5 718.219 920.5 720.016C920.5 721.859 920.792 723.489 921.376 724.906C921.971 726.312 922.847 727.418 924.002 728.224C925.17 729.019 926.617 729.416 928.345 729.416Z" fill="#F7F3E7"/>
<path d="M955.59 734.116C953.886 734.116 952.339 733.799 950.95 733.166C949.561 732.521 948.458 731.593 947.641 730.384C946.823 729.163 946.415 727.688 946.415 725.96C946.415 724.44 946.718 723.207 947.325 722.262C947.932 721.306 948.744 720.558 949.759 720.016C950.775 719.475 951.895 719.072 953.121 718.807C954.358 718.53 955.602 718.311 956.851 718.15C958.485 717.943 959.81 717.787 960.825 717.683C961.853 717.568 962.6 717.378 963.067 717.113C963.545 716.848 963.785 716.387 963.785 715.731V715.593C963.785 713.888 963.312 712.563 962.366 711.618C961.432 710.674 960.014 710.201 958.111 710.201C956.139 710.201 954.592 710.628 953.471 711.48C952.351 712.333 951.563 713.243 951.107 714.21L947.185 712.828C947.886 711.215 948.82 709.96 949.987 709.061C951.166 708.151 952.45 707.517 953.839 707.16C955.24 706.792 956.617 706.607 957.971 706.607C958.835 706.607 959.827 706.711 960.948 706.918C962.08 707.114 963.172 707.523 964.222 708.145C965.285 708.767 966.166 709.706 966.866 710.962C967.567 712.217 967.917 713.899 967.917 716.007V733.494H963.785V729.9H963.574C963.294 730.476 962.827 731.092 962.174 731.749C961.52 732.406 960.65 732.964 959.565 733.425C958.479 733.886 957.154 734.116 955.59 734.116ZM956.22 730.453C957.855 730.453 959.232 730.136 960.353 729.503C961.485 728.869 962.337 728.051 962.909 727.049C963.493 726.047 963.785 724.993 963.785 723.887V720.154C963.609 720.362 963.224 720.552 962.629 720.725C962.045 720.886 961.368 721.03 960.598 721.157C959.839 721.272 959.098 721.375 958.374 721.468C957.662 721.548 957.084 721.617 956.641 721.675C955.567 721.813 954.563 722.038 953.629 722.349C952.707 722.648 951.96 723.103 951.388 723.714C950.827 724.313 950.547 725.131 950.547 726.168C950.547 727.585 951.078 728.656 952.141 729.382C953.215 730.096 954.574 730.453 956.22 730.453Z" fill="#F7F3E7"/>
<path d="M994.51 712.897L990.798 713.934C990.564 713.323 990.22 712.73 989.765 712.154C989.321 711.567 988.714 711.083 987.944 710.703C987.173 710.322 986.187 710.132 984.984 710.132C983.339 710.132 981.967 710.507 980.87 711.256C979.784 711.993 979.241 712.932 979.241 714.072C979.241 715.086 979.615 715.886 980.362 716.474C981.109 717.061 982.276 717.551 983.864 717.943L987.856 718.91C990.261 719.486 992.053 720.368 993.232 721.554C994.41 722.729 995 724.244 995 726.099C995 727.619 994.556 728.978 993.669 730.176C992.794 731.375 991.568 732.319 989.992 733.01C988.416 733.701 986.584 734.047 984.494 734.047C981.751 734.047 979.481 733.46 977.683 732.285C975.885 731.11 974.747 729.393 974.268 727.135L978.191 726.168C978.564 727.596 979.27 728.667 980.309 729.382C981.36 730.096 982.732 730.453 984.424 730.453C986.35 730.453 987.879 730.05 989.012 729.243C990.156 728.425 990.728 727.446 990.728 726.306C990.728 725.384 990.401 724.612 989.747 723.99C989.093 723.357 988.09 722.885 986.735 722.574L982.253 721.537C979.79 720.961 977.981 720.068 976.825 718.858C975.681 717.637 975.109 716.111 975.109 714.279C975.109 712.782 975.535 711.457 976.387 710.305C977.251 709.153 978.424 708.249 979.907 707.592C981.401 706.936 983.093 706.607 984.984 706.607C987.646 706.607 989.735 707.183 991.253 708.335C992.782 709.487 993.868 711.008 994.51 712.897Z" fill="#F7F3E7"/>
<path class="arm" d="M1838 736.5C1825 772.5 1782.43 821.003 1729.24 823.153L1730.31 766.738C1760.94 751.694 1805 672.5 1815.5 671.5C1815.5 671.5 1834 684.5 1853.5 690L1838 736.5Z" fill="#171818" stroke="#010101" stroke-width="5"/>
<path d="M2139.5 478C2139.5 602.079 2042.7 702.5 1923.5 702.5C1804.3 702.5 1707.5 602.079 1707.5 478C1707.5 353.921 1804.3 253.5 1923.5 253.5C2042.7 253.5 2139.5 353.921 2139.5 478Z" fill="#FFE0B2" stroke="#010101" stroke-width="5"/>
<path d="M1864 489.001C1864 533.184 1853.54 569 1824.5 569C1795.46 569 1785 504.292 1785 504.292V497.233V492.528C1785 492.528 1789.65 408.999 1825.66 409C1861.68 409.001 1864 444.818 1864 489.001Z" fill="#F7F3E7"/>
<path d="M2030 489.001C2030 533.184 2019.54 569 1990.5 569C1961.46 569 1951 504.292 1951 504.292V497.233V492.528C1951 492.528 1955.65 408.999 1991.66 409C2027.68 409.001 2030 444.818 2030 489.001Z" fill="#F7F3E7"/>
<path d="M1864 489.001C1864 533.184 1853.54 569 1824.5 569C1795.46 569 1785 504.292 1785 504.292L1811.72 497.234L1785 492.528C1785 492.528 1789.65 408.999 1825.66 409C1861.68 409.001 1864 444.818 1864 489.001Z" fill="#010101"/>
<path d="M2030 489.001C2030 533.184 2019.54 569 1990.5 569C1961.46 569 1951 504.292 1951 504.292L1977.72 497.234L1951 492.528C1951 492.528 1955.65 408.999 1991.66 409C2027.68 409.001 2030 444.818 2030 489.001Z" fill="#010101"/>
<path d="M1938.27 569.252C1946.77 551.583 1878.23 551.583 1886.73 569.252C1891.05 578.232 1905.97 582.468 1910.9 583.646C1911.96 583.899 1913.04 583.883 1914.09 583.606C1919.06 582.297 1934.21 577.687 1938.27 569.252Z" stroke="#010101" stroke-width="5"/>
<path d="M1785 384C1806.27 350.105 1832.27 360.623 1850 380.493" stroke="#715A42" stroke-width="5"/>
<path d="M1956 381C1981.54 357.37 2000.11 362.094 2021 381" stroke="#010101" stroke-width="5" stroke-linecap="round"/>
<path d="M1764.55 359.621C1715.65 389.38 1709.86 507.403 1709.86 507.403C1709.86 507.403 1695.14 484.876 1685.43 458.613C1659.78 389.258 1685.43 237.901 1775.02 190.274C1778.09 188.638 1773.15 183.338 1765.77 177.348C1760.42 173.009 1764.84 163.049 1771.53 164.718C1771.53 164.718 1847.15 178.658 1876.24 178.658L1853.12 165.192C1850.19 163.486 1848.52 160.235 1848.84 156.862C1849.64 148.511 1859.37 143.995 1866.94 147.624C1944.65 184.899 2068.59 140.386 2150.82 315.732C2159.09 333.367 2184.56 337.803 2176.41 429.573C2168.27 521.342 2124.06 562 2124.06 562L2114.75 539.929L2105.44 517.858L2096.14 463.26C2096.14 463.26 2084.5 426.088 2046.11 347.095C2035.06 324.378 2021.67 429.573 2021.67 429.573C1926.27 408.663 1870.54 405.605 1821.81 347.095C1802.25 323.612 1857.62 408.663 1857.62 408.663L1764.55 359.621Z" fill="#715A42"/>
<path d="M1709.86 507.403L1707.77 508.77L1711.98 515.217L1712.36 507.525L1709.86 507.403ZM1764.55 359.621L1765.71 357.409L1764.46 356.748L1763.25 357.485L1764.55 359.621ZM1857.62 408.663L1856.46 410.875C1857.47 411.405 1858.7 411.189 1859.47 410.347C1860.24 409.506 1860.34 408.253 1859.72 407.299L1857.62 408.663ZM1821.81 347.095L1823.73 345.496L1821.81 347.095ZM2021.67 429.573L2021.14 432.015C2021.82 432.165 2022.54 432.02 2023.11 431.616C2023.69 431.211 2024.06 430.584 2024.15 429.888L2021.67 429.573ZM2046.11 347.095L2048.35 346.003L2046.11 347.095ZM2096.14 463.26L2098.6 462.84L2098.57 462.674L2098.52 462.513L2096.14 463.26ZM2105.44 517.858L2102.98 518.278L2103.03 518.563L2103.14 518.829L2105.44 517.858ZM2124.06 562L2121.75 562.971L2123.14 566.245L2125.75 563.84L2124.06 562ZM2150.82 315.732L2153.08 314.67L2150.82 315.732ZM1866.94 147.624L1865.86 149.878L1866.94 147.624ZM1765.77 177.348L1767.34 175.407H1767.34L1765.77 177.348ZM1775.02 190.274L1776.19 192.481L1776.19 192.481L1775.02 190.274ZM1685.43 458.613L1683.09 459.481L1685.43 458.613ZM1876.24 178.658V181.158H1885.5L1877.5 176.497L1876.24 178.658ZM1771.53 164.718L1770.92 167.143L1771 167.162L1771.07 167.176L1771.53 164.718ZM1853.12 165.192L1851.86 167.352V167.352L1853.12 165.192ZM2114.75 539.929L2117.05 538.957H2117.05L2114.75 539.929ZM1848.84 156.862L1846.36 156.625V156.625L1848.84 156.862ZM1709.86 507.403C1712.36 507.525 1712.36 507.525 1712.36 507.525C1712.36 507.524 1712.36 507.523 1712.36 507.522C1712.36 507.519 1712.36 507.514 1712.36 507.508C1712.36 507.495 1712.36 507.475 1712.36 507.448C1712.37 507.393 1712.37 507.311 1712.38 507.202C1712.39 506.983 1712.41 506.656 1712.44 506.226C1712.49 505.366 1712.57 504.096 1712.7 502.466C1712.95 499.206 1713.37 494.51 1714.02 488.778C1715.32 477.31 1717.55 461.723 1721.31 445.226C1725.06 428.716 1730.32 411.375 1737.62 396.36C1744.94 381.313 1754.21 368.841 1765.85 361.756L1763.25 357.485C1750.44 365.28 1740.64 378.721 1733.13 394.173C1725.6 409.657 1720.24 427.402 1716.43 444.117C1712.63 460.845 1710.36 476.624 1709.05 488.215C1708.39 494.013 1707.97 498.77 1707.72 502.081C1707.59 503.736 1707.5 505.031 1707.45 505.914C1707.42 506.356 1707.4 506.695 1707.39 506.925C1707.38 507.039 1707.37 507.127 1707.37 507.187C1707.37 507.216 1707.37 507.239 1707.37 507.255C1707.37 507.263 1707.37 507.269 1707.37 507.273C1707.37 507.275 1707.37 507.277 1707.37 507.278C1707.37 507.279 1707.37 507.28 1709.86 507.403ZM1763.38 361.833L1856.46 410.875L1858.79 406.451L1765.71 357.409L1763.38 361.833ZM1857.62 408.663C1859.72 407.299 1859.72 407.299 1859.72 407.298C1859.72 407.297 1859.72 407.297 1859.72 407.295C1859.71 407.293 1859.71 407.289 1859.71 407.284C1859.7 407.274 1859.69 407.258 1859.68 407.238C1859.65 407.197 1859.61 407.137 1859.56 407.057C1859.46 406.897 1859.3 406.66 1859.1 406.352C1858.7 405.736 1858.12 404.835 1857.38 403.696C1855.91 401.418 1853.82 398.19 1851.38 394.39C1846.5 386.788 1840.2 376.902 1834.51 367.753C1828.8 358.574 1823.76 350.225 1821.37 345.651C1820.77 344.499 1820.38 343.674 1820.19 343.168C1820.08 342.882 1820.1 342.864 1820.12 343.004C1820.12 343.05 1820.17 343.409 1820.02 343.872C1819.81 344.486 1819.25 345.226 1818.27 345.441C1817.54 345.599 1817.01 345.365 1816.91 345.324C1816.76 345.255 1816.68 345.194 1816.71 345.215C1816.76 345.253 1816.92 345.386 1817.22 345.687C1817.81 346.271 1818.68 347.244 1819.89 348.695L1823.73 345.496C1822.5 344.011 1821.51 342.897 1820.76 342.147C1820.39 341.78 1820.01 341.435 1819.65 341.171C1819.47 341.041 1819.22 340.873 1818.91 340.74C1818.67 340.634 1818.01 340.378 1817.2 340.556C1816.13 340.791 1815.5 341.591 1815.27 342.306C1815.08 342.869 1815.13 343.368 1815.15 343.593C1815.21 344.09 1815.38 344.581 1815.52 344.946C1815.82 345.741 1816.32 346.782 1816.94 347.966C1819.43 352.735 1824.57 361.244 1830.26 370.393C1835.97 379.572 1842.29 389.481 1847.17 397.092C1849.62 400.898 1851.71 404.131 1853.18 406.413C1853.92 407.554 1854.51 408.457 1854.91 409.075C1855.11 409.384 1855.27 409.622 1855.37 409.783C1855.42 409.863 1855.46 409.924 1855.49 409.965C1855.5 409.985 1855.51 410.001 1855.52 410.011C1855.52 410.016 1855.52 410.02 1855.53 410.023C1855.53 410.024 1855.53 410.025 1855.53 410.026C1855.53 410.027 1855.53 410.027 1857.62 408.663ZM1819.89 348.695C1869.31 408.035 1926.2 411.208 2021.14 432.015L2022.21 427.131C1926.34 406.118 1871.77 403.175 1823.73 345.496L1819.89 348.695ZM2021.67 429.573C2024.15 429.888 2024.15 429.888 2024.15 429.887C2024.15 429.887 2024.15 429.886 2024.15 429.884C2024.15 429.881 2024.15 429.877 2024.16 429.87C2024.16 429.858 2024.16 429.84 2024.16 429.815C2024.17 429.765 2024.18 429.691 2024.19 429.592C2024.22 429.396 2024.25 429.104 2024.3 428.723C2024.4 427.962 2024.55 426.848 2024.75 425.436C2025.13 422.613 2025.7 418.603 2026.41 413.862C2027.83 404.375 2029.85 391.981 2032.2 380.309C2034.56 368.573 2037.23 357.779 2039.93 351.369C2040.6 349.78 2041.24 348.543 2041.83 347.658C2042.45 346.722 2042.87 346.42 2042.99 346.359C2043.01 346.348 2042.93 346.391 2042.78 346.381C2042.63 346.37 2042.56 346.317 2042.61 346.348C2042.77 346.459 2043.24 346.909 2043.86 348.188L2048.35 346.003C2047.6 344.442 2046.66 343.052 2045.41 342.208C2043.97 341.227 2042.3 341.126 2040.78 341.875C2039.48 342.516 2038.47 343.688 2037.67 344.884C2036.84 346.131 2036.06 347.684 2035.33 349.428C2032.41 356.353 2029.66 367.598 2027.3 379.321C2024.92 391.108 2022.9 403.593 2021.47 413.12C2020.75 417.886 2020.18 421.917 2019.79 424.758C2019.6 426.178 2019.45 427.301 2019.35 428.07C2019.3 428.455 2019.26 428.75 2019.23 428.951C2019.22 429.051 2019.21 429.127 2019.2 429.178C2019.2 429.204 2019.2 429.223 2019.2 429.236C2019.19 429.243 2019.19 429.248 2019.19 429.251C2019.19 429.253 2019.19 429.255 2019.19 429.255C2019.19 429.256 2019.19 429.257 2021.67 429.573ZM2043.86 348.188C2063.03 387.635 2075.51 416.623 2083.2 435.733C2087.04 445.288 2089.68 452.373 2091.36 457.061C2092.2 459.405 2092.8 461.15 2093.19 462.305C2093.38 462.882 2093.53 463.312 2093.62 463.595C2093.66 463.737 2093.7 463.842 2093.72 463.91C2093.73 463.945 2093.74 463.97 2093.74 463.986C2093.75 463.994 2093.75 464 2093.75 464.003C2093.75 464.005 2093.75 464.006 2093.75 464.007C2093.75 464.007 2093.75 464.007 2093.75 464.007C2093.75 464.007 2093.75 464.007 2096.14 463.26C2098.52 462.513 2098.52 462.513 2098.52 462.512C2098.52 462.512 2098.52 462.511 2098.52 462.51C2098.52 462.509 2098.52 462.506 2098.52 462.504C2098.52 462.498 2098.51 462.49 2098.51 462.48C2098.5 462.46 2098.49 462.43 2098.48 462.392C2098.46 462.315 2098.42 462.202 2098.37 462.052C2098.28 461.752 2098.13 461.306 2097.93 460.713C2097.53 459.526 2096.92 457.75 2096.07 455.375C2094.37 450.624 2091.7 443.479 2087.84 433.867C2080.11 414.643 2067.58 385.548 2048.35 346.003L2043.86 348.188ZM2093.67 463.68L2102.98 518.278L2107.91 517.437L2098.6 462.84L2093.67 463.68ZM2124.06 562C2125.75 563.84 2125.75 563.839 2125.75 563.838C2125.75 563.837 2125.75 563.836 2125.76 563.835C2125.76 563.833 2125.76 563.829 2125.77 563.826C2125.77 563.819 2125.78 563.809 2125.8 563.797C2125.82 563.772 2125.86 563.737 2125.91 563.693C2126 563.604 2126.14 563.474 2126.31 563.304C2126.66 562.964 2127.15 562.462 2127.79 561.794C2129.05 560.46 2130.85 558.466 2133.03 555.792C2137.39 550.444 2143.25 542.374 2149.37 531.418C2161.59 509.499 2174.8 476.055 2178.9 429.794L2173.92 429.352C2169.89 474.86 2156.91 507.63 2145 528.982C2139.04 539.662 2133.34 547.492 2129.16 552.635C2127.06 555.206 2125.34 557.105 2124.16 558.353C2123.57 558.977 2123.11 559.438 2122.8 559.738C2122.65 559.888 2122.54 559.998 2122.46 560.068C2122.43 560.103 2122.4 560.129 2122.38 560.144C2122.38 560.151 2122.37 560.157 2122.37 560.159C2122.37 560.161 2122.36 560.161 2122.36 560.161C2122.36 560.161 2122.36 560.161 2122.36 560.161C2122.37 560.161 2122.37 560.16 2124.06 562ZM2178.9 429.794C2182.99 383.72 2178.69 359.191 2172.07 343.861C2168.75 336.182 2164.9 330.91 2161.41 326.503C2157.87 322.026 2154.99 318.743 2153.08 314.67L2148.55 316.793C2150.78 321.538 2154.18 325.423 2157.49 329.605C2160.85 333.857 2164.41 338.737 2167.48 345.843C2173.62 360.081 2177.98 383.655 2173.92 429.352L2178.9 429.794ZM2153.08 314.67C2111.67 226.352 2059.56 193.163 2007.91 177.509C1982.21 169.722 1956.66 166.284 1932.91 162.489C1909.06 158.678 1887.08 154.513 1868.02 145.37L1865.86 149.878C1885.65 159.372 1908.3 163.62 1932.12 167.427C1956.04 171.249 1981.17 174.631 2006.46 182.294C2056.76 197.539 2107.74 229.765 2148.55 316.793L2153.08 314.67ZM1764.19 179.29C1767.86 182.269 1770.76 184.941 1772.34 186.98C1773.17 188.045 1773.41 188.648 1773.45 188.845C1773.46 188.887 1773.42 188.708 1773.54 188.445C1773.67 188.169 1773.85 188.065 1773.84 188.067L1776.19 192.481C1776.96 192.074 1777.66 191.447 1778.08 190.544C1778.49 189.655 1778.51 188.746 1778.37 187.968C1778.11 186.524 1777.23 185.121 1776.29 183.908C1774.33 181.39 1771.05 178.418 1767.34 175.407L1764.19 179.29ZM1773.84 188.067C1728.19 212.338 1699.09 262.849 1684.6 315.634C1670.11 368.413 1670.02 424.158 1683.09 459.481L1687.78 457.746C1675.19 423.713 1675.1 369.102 1689.42 316.958C1703.74 264.818 1732.26 215.837 1776.19 192.481L1773.84 188.067ZM1683.09 459.481C1688 472.766 1694.17 485.081 1699.1 494.06C1701.57 498.553 1703.73 502.222 1705.27 504.77C1706.05 506.045 1706.67 507.04 1707.1 507.719C1707.31 508.058 1707.48 508.318 1707.59 508.495C1707.65 508.584 1707.69 508.651 1707.72 508.697C1707.74 508.72 1707.75 508.738 1707.76 508.75C1707.76 508.756 1707.76 508.761 1707.77 508.764C1707.77 508.766 1707.77 508.767 1707.77 508.768C1707.77 508.769 1707.77 508.769 1707.77 508.769C1707.77 508.77 1707.77 508.77 1709.86 507.403C1711.96 506.035 1711.96 506.035 1711.96 506.035C1711.96 506.035 1711.96 506.035 1711.96 506.035C1711.96 506.035 1711.96 506.034 1711.95 506.033C1711.95 506.031 1711.95 506.027 1711.95 506.023C1711.94 506.013 1711.93 505.998 1711.92 505.978C1711.89 505.937 1711.85 505.875 1711.8 505.792C1711.69 505.625 1711.53 505.376 1711.33 505.048C1710.91 504.393 1710.31 503.423 1709.55 502.175C1708.03 499.679 1705.91 496.074 1703.48 491.654C1698.62 482.803 1692.58 470.723 1687.78 457.746L1683.09 459.481ZM1876.24 176.158C1861.92 176.158 1835.94 172.708 1813.36 169.217C1802.1 167.477 1791.76 165.738 1784.22 164.433C1780.46 163.78 1777.39 163.236 1775.27 162.856C1774.21 162.666 1773.39 162.517 1772.83 162.415C1772.55 162.364 1772.34 162.325 1772.19 162.299C1772.12 162.286 1772.07 162.276 1772.03 162.269C1772.02 162.266 1772 162.263 1771.99 162.262C1771.99 162.261 1771.99 162.26 1771.98 162.26C1771.98 162.26 1771.98 162.259 1771.98 162.259C1771.98 162.259 1771.98 162.259 1771.53 164.718C1771.07 167.176 1771.07 167.176 1771.07 167.177C1771.08 167.177 1771.08 167.177 1771.08 167.177C1771.08 167.178 1771.08 167.178 1771.09 167.179C1771.1 167.181 1771.11 167.183 1771.13 167.187C1771.17 167.194 1771.22 167.204 1771.29 167.217C1771.44 167.243 1771.65 167.283 1771.94 167.334C1772.5 167.436 1773.33 167.587 1774.39 167.777C1776.52 168.159 1779.59 168.705 1783.37 169.359C1790.93 170.668 1801.3 172.413 1812.59 174.158C1835.1 177.637 1861.47 181.158 1876.24 181.158V176.158ZM1851.86 167.352L1874.98 180.818L1877.5 176.497L1854.38 163.031L1851.86 167.352ZM2103.14 518.829L2112.45 540.9L2117.05 538.957L2107.75 516.886L2103.14 518.829ZM2112.45 540.9L2121.75 562.971L2126.36 561.029L2117.05 538.957L2112.45 540.9ZM1846.36 156.625C1845.94 160.968 1848.09 165.156 1851.86 167.352L1854.38 163.031C1852.29 161.817 1851.1 159.501 1851.33 157.1L1846.36 156.625ZM1767.34 175.407C1765.8 174.154 1765.46 171.921 1766.41 169.808C1767.36 167.705 1769.12 166.693 1770.92 167.143L1772.13 162.292C1767.25 161.074 1763.45 164.208 1761.85 167.752C1760.26 171.286 1760.39 176.203 1764.19 179.29L1767.34 175.407ZM1868.02 145.37C1859.18 141.131 1847.35 146.23 1846.36 156.625L1851.33 157.1C1851.93 150.792 1859.56 146.86 1865.86 149.878L1868.02 145.37Z" fill="#010101"/>
<path d="M2107.91 545.087C2088.85 527.761 2100.1 428.311 2144.29 441.138C2198 456.729 2126.96 562.414 2107.91 545.087Z" fill="#FFE0B2"/>
<path d="M2099 475.514C2112.96 440.788 2132.42 430.797 2151.12 445.687C2186.02 473.469 2126.71 545.527 2116.24 549" stroke="#010101" stroke-width="5"/>
<path d="M1823.54 597.636C1855.33 659.003 1969.13 648.358 2001.56 608.281M1823.54 597.636C1823.54 597.636 1828.96 594.201 1832.44 592M1823.54 597.636C1823.54 597.636 1817.72 601.071 1814 603.272M2001.56 608.281C2001.56 608.281 1999.01 603.272 1997.11 595.757M2001.56 608.281C2001.56 608.281 2005.37 615.169 2013 619.553" stroke="#010101" stroke-width="5" stroke-linecap="round"/>
<path d="M1783.1 925.213C1783.1 925.213 1817.89 793.175 1854 692C1980 730.5 2059.92 653 2059.92 653C2130.93 662.635 2194.72 710.816 2199.53 733.701C2206.45 766.576 2177.87 791.516 2177.87 791.516C2152.59 771.04 2105.65 768.631 2105.65 768.631C2108.06 757.79 2103.35 738.519 2097.23 728.882C2085.74 710.815 2045.4 705.768 2051.49 724.064C2069.54 778.265 2100.84 917.986 2100.84 917.986C2100.84 917.986 2069.58 916.348 2050.29 917.986C1949.11 926.578 1933.54 931.236 1783.1 925.213Z" fill="#171818" stroke="#010101" stroke-width="5"/>
<path d="M2194.86 820.136C2191.03 847.141 2185.29 849.068 2095.29 799.885C2089.55 796.748 2108.69 807.668 2108.69 807.668L2097.2 814.35C2097.2 814.35 2079.69 813.147 2076.14 789.281C2075.27 783.49 2078.54 777.992 2083.8 774.811C2122.22 751.56 2198.69 793.131 2194.86 820.136Z" fill="#f7f3e7"/>
<path d="M2095.29 799.885L2094.09 802.079L2095.29 799.885ZM2194.86 820.136L2192.39 819.785L2194.86 820.136ZM2083.8 774.811L2085.09 776.95L2083.8 774.811ZM2076.14 789.281L2073.67 789.649L2076.14 789.281ZM2097.2 814.35L2097.03 816.845L2097.8 816.897L2098.46 816.511L2097.2 814.35ZM2108.69 807.668L2109.95 809.829L2113.7 807.647L2109.93 805.497L2108.69 807.668ZM2094.09 802.079C2116.59 814.377 2133.88 823.507 2147.2 829.853C2160.47 836.173 2170.01 839.835 2176.96 841.044C2180.46 841.652 2183.47 841.673 2186.05 840.978C2188.7 840.265 2190.75 838.835 2192.32 836.811C2193.84 834.843 2194.84 832.395 2195.58 829.7C2196.33 826.997 2196.85 823.883 2197.34 820.487L2192.39 819.785C2191.91 823.141 2191.42 825.993 2190.76 828.373C2190.11 830.76 2189.33 832.509 2188.37 833.751C2187.45 834.937 2186.32 835.729 2184.75 836.15C2183.12 836.589 2180.9 836.655 2177.82 836.118C2171.6 835.036 2162.59 831.646 2149.35 825.339C2136.16 819.057 2118.98 809.985 2096.49 797.691L2094.09 802.079ZM2197.34 820.487C2198.46 812.532 2193.68 804.113 2186.31 796.636C2178.82 789.044 2168.15 781.885 2156.22 776.359C2144.29 770.829 2130.96 766.873 2118.11 765.795C2105.27 764.718 2092.7 766.499 2082.5 772.672L2085.09 776.95C2094.1 771.497 2105.5 769.756 2117.69 770.778C2129.86 771.798 2142.61 775.563 2154.12 780.896C2165.64 786.232 2175.77 793.075 2182.75 800.147C2189.83 807.333 2193.17 814.238 2192.39 819.785L2197.34 820.487ZM2082.5 772.672C2076.61 776.242 2072.62 782.63 2073.67 789.649L2078.61 788.912C2077.93 784.35 2080.48 779.743 2085.09 776.95L2082.5 772.672ZM2073.67 789.649C2075.54 802.246 2081.18 809.14 2086.6 812.832C2089.27 814.652 2091.82 815.649 2093.72 816.193C2094.68 816.465 2095.47 816.626 2096.04 816.719C2096.33 816.766 2096.56 816.796 2096.72 816.815C2096.81 816.825 2096.88 816.831 2096.93 816.836C2096.95 816.838 2096.98 816.84 2096.99 816.842C2097 816.842 2097.01 816.843 2097.02 816.843C2097.02 816.844 2097.02 816.844 2097.02 816.844C2097.03 816.844 2097.03 816.844 2097.03 816.844C2097.03 816.844 2097.03 816.845 2097.2 814.35C2097.37 811.856 2097.38 811.856 2097.38 811.857C2097.38 811.857 2097.38 811.857 2097.38 811.857C2097.38 811.857 2097.38 811.857 2097.38 811.857C2097.39 811.857 2097.39 811.857 2097.39 811.857C2097.39 811.857 2097.39 811.857 2097.38 811.856C2097.36 811.855 2097.33 811.852 2097.29 811.847C2097.2 811.837 2097.05 811.818 2096.85 811.785C2096.45 811.719 2095.85 811.599 2095.1 811.386C2093.61 810.959 2091.56 810.164 2089.41 808.699C2085.19 805.822 2080.29 800.182 2078.61 788.912L2073.67 789.649ZM2098.46 816.511L2109.95 809.829L2107.43 805.507L2095.95 812.189L2098.46 816.511ZM2108.69 807.668C2109.93 805.497 2109.93 805.496 2109.93 805.496C2109.93 805.496 2109.93 805.496 2109.93 805.496C2109.93 805.496 2109.93 805.495 2109.93 805.495C2109.92 805.493 2109.92 805.491 2109.92 805.489C2109.91 805.483 2109.89 805.476 2109.87 805.465C2109.84 805.445 2109.79 805.414 2109.72 805.375C2109.58 805.296 2109.38 805.18 2109.12 805.034C2108.61 804.742 2107.88 804.328 2107.03 803.84C2105.33 802.866 2103.11 801.6 2101.08 800.433C2099.05 799.262 2097.2 798.199 2096.23 797.625C2095.99 797.48 2095.81 797.375 2095.7 797.309C2095.64 797.272 2095.63 797.264 2095.65 797.274C2095.65 797.278 2095.67 797.289 2095.69 797.304C2095.71 797.316 2095.76 797.352 2095.82 797.404C2095.85 797.43 2095.91 797.481 2095.98 797.55C2096.02 797.592 2096.2 797.768 2096.36 798.041C2096.45 798.199 2096.62 798.635 2096.68 798.915C2096.71 799.362 2096.49 800.357 2096.19 800.852C2095.83 801.222 2095.1 801.657 2094.77 801.757C2094.56 801.795 2094.2 801.819 2094.06 801.814C2093.81 801.798 2093.61 801.746 2093.56 801.73C2093.47 801.707 2093.41 801.685 2093.37 801.672C2093.3 801.647 2093.25 801.625 2093.24 801.617C2093.2 801.601 2093.18 801.59 2093.19 801.595C2093.2 801.602 2093.24 801.624 2093.33 801.667C2093.48 801.75 2093.73 801.884 2094.09 802.079L2096.49 797.691C2096.12 797.494 2095.85 797.345 2095.66 797.244C2095.56 797.195 2095.47 797.148 2095.4 797.111C2095.36 797.093 2095.31 797.066 2095.24 797.038C2095.21 797.025 2095.15 796.998 2095.07 796.97C2095.03 796.956 2094.97 796.932 2094.88 796.909C2094.82 796.892 2094.63 796.839 2094.37 796.824C2094.23 796.819 2093.87 796.842 2093.66 796.881C2093.33 796.981 2092.59 797.416 2092.24 797.787C2091.94 798.282 2091.71 799.277 2091.75 799.724C2091.81 800.005 2091.98 800.441 2092.07 800.6C2092.23 800.874 2092.41 801.051 2092.45 801.095C2092.52 801.167 2092.59 801.22 2092.62 801.248C2092.73 801.342 2092.84 801.412 2092.86 801.424C2092.93 801.474 2093.02 801.526 2093.08 801.568C2093.23 801.659 2093.44 801.784 2093.69 801.931C2094.69 802.522 2096.56 803.6 2098.59 804.768C2100.63 805.938 2102.84 807.206 2104.55 808.181C2105.4 808.669 2106.13 809.083 2106.64 809.376C2106.9 809.522 2107.1 809.638 2107.24 809.718C2107.31 809.757 2107.36 809.788 2107.4 809.808C2107.42 809.819 2107.43 809.826 2107.44 809.832C2107.44 809.834 2107.45 809.836 2107.45 809.838C2107.45 809.838 2107.45 809.839 2107.45 809.839C2107.45 809.839 2107.45 809.839 2107.45 809.839C2107.45 809.84 2107.45 809.84 2108.69 807.668Z" fill="#010101"/>
<path d="M2100.93 906.684C1916.63 950.057 1786.53 910.298 1786.53 910.298C1717.86 980.178 1766.05 1068.13 1797.37 1076.56L1789.35 1137.33C1789.1 1139.22 1789.93 1141.11 1791.59 1142.04C1820.61 1158.17 1880.97 1145.73 1898.5 1141.62C1901.21 1140.98 1902.76 1138.25 1901.94 1135.59C1898.33 1123.95 1888.37 1094.58 1876.87 1085C1876.87 1085 1923.85 1112.71 2004.56 1068.13V1125.85C2004.56 1128.06 2006 1129.99 2008.16 1130.51C2023.48 1134.15 2084.29 1145.29 2121.33 1103.6C2122.83 1101.91 2122.91 1099.4 2121.6 1097.55C2115.72 1089.26 2099.35 1065.89 2087.68 1046.44C2061.53 1002.85 2100.93 906.684 2100.93 906.684Z" fill="#4BADD0" stroke="#010101" stroke-width="5" stroke-linejoin="round"/>
<path d="M2078 792C2081.76 782.098 2092.12 779.129 2110 782.099" stroke="#010101" stroke-width="5" stroke-linecap="round" stroke-linejoin="round"/>
<path d="M2111.16 1001.71C2025.26 959.722 2054.85 832.811 2108.3 808L2161.74 832.811C2174.87 874.51 2139.25 923.085 2131.76 932.513C2131.88 932.369 2132.01 932.215 2132.16 932.052C2154.91 905.802 2172.24 899.608 2182.74 902.471C2195.93 906.066 2196.67 921.36 2189.42 933.96C2145.52 1010.3 2111.16 1001.71 2111.16 1001.71Z" fill="#f7f3e7" stroke="#010101" stroke-width="5"/>
<path class="hand" d="M1586.89 712.073C1567.61 701.362 1594.77 685.921 1594.77 685.921C1564.69 689.125 1555.11 673.598 1535.65 642.07L1535.45 641.742C1533.97 639.35 1531.91 637.386 1529.49 635.965C1517.4 628.885 1479.5 605.404 1472.37 585.417C1466.7 569.54 1479.8 565.054 1490.02 565.365C1504.17 565.797 1533.06 597.817 1539.83 596.634C1540.29 596.032 1540.76 595.436 1541.23 594.845C1541.25 594.673 1541.26 594.489 1541.27 594.29C1541.61 581.78 1516.88 566.497 1504.67 541.937C1492.46 517.378 1517.95 506.588 1528.42 516.625C1538.89 526.661 1566.07 582.703 1570.96 567.068C1575.85 551.434 1546.71 517.681 1547.76 489.731C1548.3 475.453 1567.28 462.817 1578.24 474.745C1586.81 484.08 1595.32 568.152 1621.82 555.147C1624.66 553.749 1603.23 511.959 1609.72 487.667C1611.82 479.789 1628.44 460.991 1646.95 481.973C1665.46 502.956 1638.26 590.024 1655.5 576.185C1672.75 562.346 1676.71 546.044 1700.55 537.553C1710.05 534.166 1724.42 541.633 1724.2 551.714C1723.66 576.434 1693.45 579.568 1677.19 606.443C1664.15 628.001 1682.36 651.429 1651.62 665.673C1651.62 665.673 1688.21 667.514 1679.92 685.86C1678.66 688.657 1676.07 691.649 1672.5 694.629C1660.58 704.568 1637.76 714.39 1616.89 716.514C1605.66 717.658 1594.99 716.571 1586.89 712.073Z" fill="#F7F3E7" stroke="#010101" stroke-width="7" stroke-linecap="round" stroke-linejoin="round"/>
<path class="forearm" d="M1736.5 822.5C1653 834 1616.89 716.514 1616.89 716.514C1637.76 714.39 1660.58 704.568 1672.5 694.629C1672.5 694.629 1696.07 747.483 1731.5 766L1736.5 822.5Z" stroke="#010101" stroke-width="5" stroke-linecap="round" stroke-linejoin="round" fill="#171818"/>
</g>
<defs>
<filter id="filter0_d_553_26" x="355.5" y="113.5" width="943.338" height="481" filterUnits="userSpaceOnUse" color-interpolation-filters="sRGB">
<feFlood flood-opacity="0" result="BackgroundImageFix"/>
<feColorMatrix in="SourceAlpha" type="matrix" values="0 0 0 0 0 0 0 0 0 0 0 0 0 0 0 0 0 0 127 0" result="hardAlpha"/>
<feOffset dx="30" dy="20"/>
<feGaussianBlur stdDeviation="2"/>
<feComposite in2="hardAlpha" operator="out"/>
<feColorMatrix type="matrix" values="0 0 0 0 0.00392157 0 0 0 0 0.00392157 0 0 0 0 0.00392157 0 0 0 1 0"/>
<feBlend mode="normal" in2="BackgroundImageFix" result="effect1_dropShadow_553_26"/>
<feBlend mode="normal" in="SourceGraphic" in2="effect1_dropShadow_553_26" result="shape"/>
</filter>
<clipPath id="clip0_553_26">
<rect width="2834" height="958" fill="white"/>
</clipPath>
</defs>
</svg>
